<svg xmlns="http://www.w3.org/2000/svg" xmlns:xlink="http://www.w3.org/1999/xlink" width="1000" zoomAndPan="magnify" viewBox="0 0 750 187.499995" height="250" preserveAspectRatio="xMidYMid meet" version="1.0"><defs><g/></defs><g fill="#000000" fill-opacity="0.4"><g transform="translate(10.03313, 134.753158)"><g><path d="M 48.515625 0 L 45.203125 -12.59375 L 23.359375 -12.59375 L 19.953125 0 L 0 0 L 21.9375 -67.515625 L 46.171875 -67.515625 L 68.390625 0 Z M 41.4375 -27.5 L 38.546875 -38.546875 C 37.867188 -40.992188 37.046875 -44.164062 36.078125 -48.0625 C 35.109375 -51.957031 34.472656 -54.75 34.171875 -56.4375 C 33.890625 -54.863281 33.34375 -52.285156 32.53125 -48.703125 C 31.71875 -45.117188 29.921875 -38.050781 27.140625 -27.5 Z M 41.4375 -27.5 "/></g></g></g><g fill="#000000" fill-opacity="0.4"><g transform="translate(78.417686, 134.753158)"><g><path d="M 64.34375 -35.046875 C 64.34375 -23.828125 61.253906 -15.179688 55.078125 -9.109375 C 48.898438 -3.035156 40.210938 0 29.015625 0 L 7.265625 0 L 7.265625 -67.234375 L 30.53125 -67.234375 C 41.320312 -67.234375 49.65625 -64.472656 55.53125 -58.953125 C 61.40625 -53.441406 64.34375 -45.472656 64.34375 -35.046875 Z M 45.484375 -34.40625 C 45.484375 -40.5625 44.265625 -45.125 41.828125 -48.09375 C 39.390625 -51.070312 35.6875 -52.5625 30.71875 -52.5625 L 25.4375 -52.5625 L 25.4375 -14.90625 L 29.484375 -14.90625 C 34.992188 -14.90625 39.035156 -16.503906 41.609375 -19.703125 C 44.191406 -22.910156 45.484375 -27.8125 45.484375 -34.40625 Z M 45.484375 -34.40625 "/></g></g></g><g fill="#000000" fill-opacity="0.4"><g transform="translate(147.538053, 134.753158)"><g><path d="M 64.34375 -35.046875 C 64.34375 -23.828125 61.253906 -15.179688 55.078125 -9.109375 C 48.898438 -3.035156 40.210938 0 29.015625 0 L 7.265625 0 L 7.265625 -67.234375 L 30.53125 -67.234375 C 41.320312 -67.234375 49.65625 -64.472656 55.53125 -58.953125 C 61.40625 -53.441406 64.34375 -45.472656 64.34375 -35.046875 Z M 45.484375 -34.40625 C 45.484375 -40.5625 44.265625 -45.125 41.828125 -48.09375 C 39.390625 -51.070312 35.6875 -52.5625 30.71875 -52.5625 L 25.4375 -52.5625 L 25.4375 -14.90625 L 29.484375 -14.90625 C 34.992188 -14.90625 39.035156 -16.503906 41.609375 -19.703125 C 44.191406 -22.910156 45.484375 -27.8125 45.484375 -34.40625 Z M 45.484375 -34.40625 "/></g></g></g><g fill="#000000" fill-opacity="0.4"><g transform="translate(216.658421, 134.753158)"><g/></g></g><g fill="#000000" fill-opacity="0.4"><g transform="translate(241.124178, 134.753158)"><g><path d="M 79.890625 0 L 58.40625 0 L 51.96875 -29.296875 C 51.664062 -30.523438 51.179688 -32.960938 50.515625 -36.609375 C 49.859375 -40.253906 49.378906 -43.304688 49.078125 -45.765625 C 48.828125 -43.765625 48.425781 -41.285156 47.875 -38.328125 C 47.320312 -35.367188 46.773438 -32.644531 46.234375 -30.15625 C 45.703125 -27.675781 43.472656 -17.625 39.546875 0 L 18.078125 0 L 1.421875 -67.234375 L 18.953125 -67.234375 L 26.265625 -33.53125 C 27.921875 -26.070312 29.050781 -20.140625 29.65625 -15.734375 C 30.0625 -18.859375 30.773438 -23.101562 31.796875 -28.46875 C 32.828125 -33.832031 33.785156 -38.28125 34.671875 -41.8125 L 40.609375 -67.234375 L 57.4375 -67.234375 L 63.1875 -41.8125 C 64.164062 -37.726562 65.160156 -33.019531 66.171875 -27.6875 C 67.191406 -22.351562 67.867188 -18.367188 68.203125 -15.734375 C 68.597656 -19.128906 69.6875 -25.03125 71.46875 -33.4375 L 78.921875 -67.234375 L 96.4375 -67.234375 Z M 79.890625 0 "/></g></g></g><g fill="#000000" fill-opacity="0.4"><g transform="translate(338.987207, 134.753158)"><g><path d="M 70.1875 -33.703125 C 70.1875 -22.390625 67.410156 -13.789062 61.859375 -7.90625 C 56.304688 -2.019531 48.179688 0.921875 37.484375 0.921875 C 26.929688 0.921875 18.84375 -2.035156 13.21875 -7.953125 C 7.59375 -13.867188 4.78125 -22.484375 4.78125 -33.796875 C 4.78125 -44.992188 7.578125 -53.539062 13.171875 -59.4375 C 18.765625 -65.34375 26.898438 -68.296875 37.578125 -68.296875 C 48.273438 -68.296875 56.382812 -65.367188 61.90625 -59.515625 C 67.425781 -53.660156 70.1875 -45.054688 70.1875 -33.703125 Z M 23.921875 -33.703125 C 23.921875 -20.703125 28.441406 -14.203125 37.484375 -14.203125 C 42.078125 -14.203125 45.484375 -15.78125 47.703125 -18.9375 C 49.929688 -22.101562 51.046875 -27.023438 51.046875 -33.703125 C 51.046875 -40.421875 49.914062 -45.378906 47.65625 -48.578125 C 45.40625 -51.785156 42.046875 -53.390625 37.578125 -53.390625 C 28.472656 -53.390625 23.921875 -46.828125 23.921875 -33.703125 Z M 23.921875 -33.703125 "/></g></g></g><g fill="#000000" fill-opacity="0.4"><g transform="translate(414.040057, 134.753158)"><g><path d="M 25.4375 -24.46875 L 25.4375 0 L 7.265625 0 L 7.265625 -67.234375 L 29.296875 -67.234375 C 47.566406 -67.234375 56.703125 -60.613281 56.703125 -47.375 C 56.703125 -39.582031 52.898438 -33.554688 45.296875 -29.296875 L 64.890625 0 L 44.28125 0 L 30.03125 -24.46875 Z M 25.4375 -38.125 L 28.828125 -38.125 C 35.179688 -38.125 38.359375 -40.929688 38.359375 -46.546875 C 38.359375 -51.171875 35.242188 -53.484375 29.015625 -53.484375 L 25.4375 -53.484375 Z M 25.4375 -38.125 "/></g></g></g><g fill="#000000" fill-opacity="0.4"><g transform="translate(477.779786, 134.753158)"><g><path d="M 64.703125 0 L 44.203125 0 L 30.90625 -25.703125 L 25.53125 -22.484375 L 25.53125 0 L 7.265625 0 L 7.265625 -67.234375 L 25.53125 -67.234375 L 25.53125 -38.03125 C 26.445312 -39.84375 28.300781 -42.710938 31.09375 -46.640625 L 45.203125 -67.234375 L 65.078125 -67.234375 L 43.875 -37.109375 Z M 64.703125 0 "/></g></g></g><g fill="#000000" fill-opacity="0.4"><g transform="translate(542.485265, 134.753158)"><g><path d="M 70.1875 -33.703125 C 70.1875 -22.390625 67.410156 -13.789062 61.859375 -7.90625 C 56.304688 -2.019531 48.179688 0.921875 37.484375 0.921875 C 26.929688 0.921875 18.84375 -2.035156 13.21875 -7.953125 C 7.59375 -13.867188 4.78125 -22.484375 4.78125 -33.796875 C 4.78125 -44.992188 7.578125 -53.539062 13.171875 -59.4375 C 18.765625 -65.34375 26.898438 -68.296875 37.578125 -68.296875 C 48.273438 -68.296875 56.382812 -65.367188 61.90625 -59.515625 C 67.425781 -53.660156 70.1875 -45.054688 70.1875 -33.703125 Z M 23.921875 -33.703125 C 23.921875 -20.703125 28.441406 -14.203125 37.484375 -14.203125 C 42.078125 -14.203125 45.484375 -15.78125 47.703125 -18.9375 C 49.929688 -22.101562 51.046875 -27.023438 51.046875 -33.703125 C 51.046875 -40.421875 49.914062 -45.378906 47.65625 -48.578125 C 45.40625 -51.785156 42.046875 -53.390625 37.578125 -53.390625 C 28.472656 -53.390625 23.921875 -46.828125 23.921875 -33.703125 Z M 23.921875 -33.703125 "/></g></g></g><g fill="#000000" fill-opacity="0.4"><g transform="translate(617.538115, 134.753158)"><g><path d="M 64.4375 -67.234375 L 64.4375 -26.765625 C 64.4375 -17.960938 61.941406 -11.144531 56.953125 -6.3125 C 51.972656 -1.488281 44.789062 0.921875 35.40625 0.921875 C 26.238281 0.921875 19.195312 -1.421875 14.28125 -6.109375 C 9.363281 -10.804688 6.90625 -17.554688 6.90625 -26.359375 L 6.90625 -67.234375 L 25.15625 -67.234375 L 25.15625 -27.78125 C 25.15625 -23.03125 26.039062 -19.578125 27.8125 -17.421875 C 29.59375 -15.273438 32.21875 -14.203125 35.6875 -14.203125 C 39.394531 -14.203125 42.082031 -15.269531 43.75 -17.40625 C 45.425781 -19.539062 46.265625 -23.03125 46.265625 -27.875 L 46.265625 -67.234375 Z M 64.4375 -67.234375 "/></g></g></g><g fill="#000000" fill-opacity="0.4"><g transform="translate(688.819904, 134.753158)"><g><path d="M 36.9375 0 L 18.765625 0 L 18.765625 -52.375 L 2.34375 -52.375 L 2.34375 -67.234375 L 53.296875 -67.234375 L 53.296875 -52.375 L 36.9375 -52.375 Z M 36.9375 0 "/></g></g></g><g fill="#e4e4e4" fill-opacity="1"><g transform="translate(4.871393, 129.591419)"><g><path d="M 48.515625 0 L 45.203125 -12.59375 L 23.359375 -12.59375 L 19.953125 0 L 0 0 L 21.9375 -67.515625 L 46.171875 -67.515625 L 68.390625 0 Z M 41.4375 -27.5 L 38.546875 -38.546875 C 37.867188 -40.992188 37.046875 -44.164062 36.078125 -48.0625 C 35.109375 -51.957031 34.472656 -54.75 34.171875 -56.4375 C 33.890625 -54.863281 33.34375 -52.285156 32.53125 -48.703125 C 31.71875 -45.117188 29.921875 -38.050781 27.140625 -27.5 Z M 41.4375 -27.5 "/></g></g></g><g fill="#e4e4e4" fill-opacity="1"><g transform="translate(73.255948, 129.591419)"><g><path d="M 64.34375 -35.046875 C 64.34375 -23.828125 61.253906 -15.179688 55.078125 -9.109375 C 48.898438 -3.035156 40.210938 0 29.015625 0 L 7.265625 0 L 7.265625 -67.234375 L 30.53125 -67.234375 C 41.320312 -67.234375 49.65625 -64.472656 55.53125 -58.953125 C 61.40625 -53.441406 64.34375 -45.472656 64.34375 -35.046875 Z M 45.484375 -34.40625 C 45.484375 -40.5625 44.265625 -45.125 41.828125 -48.09375 C 39.390625 -51.070312 35.6875 -52.5625 30.71875 -52.5625 L 25.4375 -52.5625 L 25.4375 -14.90625 L 29.484375 -14.90625 C 34.992188 -14.90625 39.035156 -16.503906 41.609375 -19.703125 C 44.191406 -22.910156 45.484375 -27.8125 45.484375 -34.40625 Z M 45.484375 -34.40625 "/></g></g></g><g fill="#e4e4e4" fill-opacity="1"><g transform="translate(142.376316, 129.591419)"><g><path d="M 64.34375 -35.046875 C 64.34375 -23.828125 61.253906 -15.179688 55.078125 -9.109375 C 48.898438 -3.035156 40.210938 0 29.015625 0 L 7.265625 0 L 7.265625 -67.234375 L 30.53125 -67.234375 C 41.320312 -67.234375 49.65625 -64.472656 55.53125 -58.953125 C 61.40625 -53.441406 64.34375 -45.472656 64.34375 -35.046875 Z M 45.484375 -34.40625 C 45.484375 -40.5625 44.265625 -45.125 41.828125 -48.09375 C 39.390625 -51.070312 35.6875 -52.5625 30.71875 -52.5625 L 25.4375 -52.5625 L 25.4375 -14.90625 L 29.484375 -14.90625 C 34.992188 -14.90625 39.035156 -16.503906 41.609375 -19.703125 C 44.191406 -22.910156 45.484375 -27.8125 45.484375 -34.40625 Z M 45.484375 -34.40625 "/></g></g></g><g fill="#e4e4e4" fill-opacity="1"><g transform="translate(211.496683, 129.591419)"><g/></g></g><g fill="#e4e4e4" fill-opacity="1"><g transform="translate(235.96244, 129.591419)"><g><path d="M 79.890625 0 L 58.40625 0 L 51.96875 -29.296875 C 51.664062 -30.523438 51.179688 -32.960938 50.515625 -36.609375 C 49.859375 -40.253906 49.378906 -43.304688 49.078125 -45.765625 C 48.828125 -43.765625 48.425781 -41.285156 47.875 -38.328125 C 47.320312 -35.367188 46.773438 -32.644531 46.234375 -30.15625 C 45.703125 -27.675781 43.472656 -17.625 39.546875 0 L 18.078125 0 L 1.421875 -67.234375 L 18.953125 -67.234375 L 26.265625 -33.53125 C 27.921875 -26.070312 29.050781 -20.140625 29.65625 -15.734375 C 30.0625 -18.859375 30.773438 -23.101562 31.796875 -28.46875 C 32.828125 -33.832031 33.785156 -38.28125 34.671875 -41.8125 L 40.609375 -67.234375 L 57.4375 -67.234375 L 63.1875 -41.8125 C 64.164062 -37.726562 65.160156 -33.019531 66.171875 -27.6875 C 67.191406 -22.351562 67.867188 -18.367188 68.203125 -15.734375 C 68.597656 -19.128906 69.6875 -25.03125 71.46875 -33.4375 L 78.921875 -67.234375 L 96.4375 -67.234375 Z M 79.890625 0 "/></g></g></g><g fill="#e4e4e4" fill-opacity="1"><g transform="translate(333.82547, 129.591419)"><g><path d="M 70.1875 -33.703125 C 70.1875 -22.390625 67.410156 -13.789062 61.859375 -7.90625 C 56.304688 -2.019531 48.179688 0.921875 37.484375 0.921875 C 26.929688 0.921875 18.84375 -2.035156 13.21875 -7.953125 C 7.59375 -13.867188 4.78125 -22.484375 4.78125 -33.796875 C 4.78125 -44.992188 7.578125 -53.539062 13.171875 -59.4375 C 18.765625 -65.34375 26.898438 -68.296875 37.578125 -68.296875 C 48.273438 -68.296875 56.382812 -65.367188 61.90625 -59.515625 C 67.425781 -53.660156 70.1875 -45.054688 70.1875 -33.703125 Z M 23.921875 -33.703125 C 23.921875 -20.703125 28.441406 -14.203125 37.484375 -14.203125 C 42.078125 -14.203125 45.484375 -15.78125 47.703125 -18.9375 C 49.929688 -22.101562 51.046875 -27.023438 51.046875 -33.703125 C 51.046875 -40.421875 49.914062 -45.378906 47.65625 -48.578125 C 45.40625 -51.785156 42.046875 -53.390625 37.578125 -53.390625 C 28.472656 -53.390625 23.921875 -46.828125 23.921875 -33.703125 Z M 23.921875 -33.703125 "/></g></g></g><g fill="#e4e4e4" fill-opacity="1"><g transform="translate(408.878319, 129.591419)"><g><path d="M 25.4375 -24.46875 L 25.4375 0 L 7.265625 0 L 7.265625 -67.234375 L 29.296875 -67.234375 C 47.566406 -67.234375 56.703125 -60.613281 56.703125 -47.375 C 56.703125 -39.582031 52.898438 -33.554688 45.296875 -29.296875 L 64.890625 0 L 44.28125 0 L 30.03125 -24.46875 Z M 25.4375 -38.125 L 28.828125 -38.125 C 35.179688 -38.125 38.359375 -40.929688 38.359375 -46.546875 C 38.359375 -51.171875 35.242188 -53.484375 29.015625 -53.484375 L 25.4375 -53.484375 Z M 25.4375 -38.125 "/></g></g></g><g fill="#e4e4e4" fill-opacity="1"><g transform="translate(472.618048, 129.591419)"><g><path d="M 64.703125 0 L 44.203125 0 L 30.90625 -25.703125 L 25.53125 -22.484375 L 25.53125 0 L 7.265625 0 L 7.265625 -67.234375 L 25.53125 -67.234375 L 25.53125 -38.03125 C 26.445312 -39.84375 28.300781 -42.710938 31.09375 -46.640625 L 45.203125 -67.234375 L 65.078125 -67.234375 L 43.875 -37.109375 Z M 64.703125 0 "/></g></g></g><g fill="#e4e4e4" fill-opacity="1"><g transform="translate(537.323527, 129.591419)"><g><path d="M 70.1875 -33.703125 C 70.1875 -22.390625 67.410156 -13.789062 61.859375 -7.90625 C 56.304688 -2.019531 48.179688 0.921875 37.484375 0.921875 C 26.929688 0.921875 18.84375 -2.035156 13.21875 -7.953125 C 7.59375 -13.867188 4.78125 -22.484375 4.78125 -33.796875 C 4.78125 -44.992188 7.578125 -53.539062 13.171875 -59.4375 C 18.765625 -65.34375 26.898438 -68.296875 37.578125 -68.296875 C 48.273438 -68.296875 56.382812 -65.367188 61.90625 -59.515625 C 67.425781 -53.660156 70.1875 -45.054688 70.1875 -33.703125 Z M 23.921875 -33.703125 C 23.921875 -20.703125 28.441406 -14.203125 37.484375 -14.203125 C 42.078125 -14.203125 45.484375 -15.78125 47.703125 -18.9375 C 49.929688 -22.101562 51.046875 -27.023438 51.046875 -33.703125 C 51.046875 -40.421875 49.914062 -45.378906 47.65625 -48.578125 C 45.40625 -51.785156 42.046875 -53.390625 37.578125 -53.390625 C 28.472656 -53.390625 23.921875 -46.828125 23.921875 -33.703125 Z M 23.921875 -33.703125 "/></g></g></g><g fill="#e4e4e4" fill-opacity="1"><g transform="translate(612.376377, 129.591419)"><g><path d="M 64.4375 -67.234375 L 64.4375 -26.765625 C 64.4375 -17.960938 61.941406 -11.144531 56.953125 -6.3125 C 51.972656 -1.488281 44.789062 0.921875 35.40625 0.921875 C 26.238281 0.921875 19.195312 -1.421875 14.28125 -6.109375 C 9.363281 -10.804688 6.90625 -17.554688 6.90625 -26.359375 L 6.90625 -67.234375 L 25.15625 -67.234375 L 25.15625 -27.78125 C 25.15625 -23.03125 26.039062 -19.578125 27.8125 -17.421875 C 29.59375 -15.273438 32.21875 -14.203125 35.6875 -14.203125 C 39.394531 -14.203125 42.082031 -15.269531 43.75 -17.40625 C 45.425781 -19.539062 46.265625 -23.03125 46.265625 -27.875 L 46.265625 -67.234375 Z M 64.4375 -67.234375 "/></g></g></g><g fill="#e4e4e4" fill-opacity="1"><g transform="translate(683.658166, 129.591419)"><g><path d="M 36.9375 0 L 18.765625 0 L 18.765625 -52.375 L 2.34375 -52.375 L 2.34375 -67.234375 L 53.296875 -67.234375 L 53.296875 -52.375 L 36.9375 -52.375 Z M 36.9375 0 "/></g></g></g></svg>