<svg xmlns="http://www.w3.org/2000/svg" xmlns:xlink="http://www.w3.org/1999/xlink" width="1000" zoomAndPan="magnify" viewBox="0 0 750 187.499995" height="250" preserveAspectRatio="xMidYMid meet" version="1.0"><defs><g/></defs><g fill="#000000" fill-opacity="0.4"><g transform="translate(13.144644, 135.013073)"><g><path d="M 46.984375 0 L 7.234375 0 L 7.234375 -66.953125 L 46.984375 -66.953125 L 46.984375 -52.4375 L 25.328125 -52.4375 L 25.328125 -41.90625 L 45.390625 -41.90625 L 45.390625 -27.390625 L 25.328125 -27.390625 L 25.328125 -14.75 L 46.984375 -14.75 Z M 46.984375 0 "/></g></g></g><g fill="#000000" fill-opacity="0.4"><g transform="translate(64.620125, 135.013073)"><g><path d="M 64.078125 -34.90625 C 64.078125 -23.726562 61 -15.113281 54.84375 -9.0625 C 48.6875 -3.019531 40.039062 0 28.90625 0 L 7.234375 0 L 7.234375 -66.953125 L 30.40625 -66.953125 C 41.15625 -66.953125 49.453125 -64.203125 55.296875 -58.703125 C 61.148438 -53.210938 64.078125 -45.28125 64.078125 -34.90625 Z M 45.296875 -34.265625 C 45.296875 -40.398438 44.082031 -44.945312 41.65625 -47.90625 C 39.226562 -50.863281 35.539062 -52.34375 30.59375 -52.34375 L 25.328125 -52.34375 L 25.328125 -14.84375 L 29.359375 -14.84375 C 34.847656 -14.84375 38.875 -16.4375 41.4375 -19.625 C 44.007812 -22.8125 45.296875 -27.691406 45.296875 -34.265625 Z M 45.296875 -34.265625 "/></g></g></g><g fill="#000000" fill-opacity="0.4"><g transform="translate(133.452556, 135.013073)"><g><path d="M 7.234375 0 L 7.234375 -66.953125 L 25.421875 -66.953125 L 25.421875 0 Z M 7.234375 0 "/></g></g></g><g fill="#000000" fill-opacity="0.4"><g transform="translate(166.105608, 135.013073)"><g><path d="M 36.78125 0 L 18.6875 0 L 18.6875 -52.171875 L 2.328125 -52.171875 L 2.328125 -66.953125 L 53.078125 -66.953125 L 53.078125 -52.171875 L 36.78125 -52.171875 Z M 36.78125 0 "/></g></g></g><g fill="#000000" fill-opacity="0.4"><g transform="translate(221.519596, 135.013073)"><g/></g></g><g fill="#000000" fill-opacity="0.4"><g transform="translate(245.883436, 135.013073)"><g><path d="M 79.546875 0 L 58.171875 0 L 51.75 -29.171875 C 51.445312 -30.390625 50.96875 -32.816406 50.3125 -36.453125 C 49.65625 -40.085938 49.175781 -43.125 48.875 -45.5625 C 48.625 -43.582031 48.222656 -41.117188 47.671875 -38.171875 C 47.128906 -35.222656 46.585938 -32.507812 46.046875 -30.03125 C 45.515625 -27.5625 43.296875 -17.550781 39.390625 0 L 18 0 L 1.421875 -66.953125 L 18.875 -66.953125 L 26.15625 -33.390625 C 27.800781 -25.972656 28.929688 -20.0625 29.546875 -15.65625 C 29.941406 -18.769531 30.648438 -23 31.671875 -28.34375 C 32.691406 -33.6875 33.644531 -38.113281 34.53125 -41.625 L 40.4375 -66.953125 L 57.203125 -66.953125 L 62.921875 -41.625 C 63.898438 -37.570312 64.894531 -32.890625 65.90625 -27.578125 C 66.914062 -22.265625 67.585938 -18.289062 67.921875 -15.65625 C 68.316406 -19.050781 69.398438 -24.929688 71.171875 -33.296875 L 78.59375 -66.953125 L 96.046875 -66.953125 Z M 79.546875 0 "/></g></g></g><g fill="#000000" fill-opacity="0.4"><g transform="translate(343.338779, 135.013073)"><g><path d="M 69.890625 -33.578125 C 69.890625 -22.304688 67.125 -13.738281 61.59375 -7.875 C 56.070312 -2.007812 47.984375 0.921875 37.328125 0.921875 C 26.828125 0.921875 18.773438 -2.023438 13.171875 -7.921875 C 7.566406 -13.816406 4.765625 -22.394531 4.765625 -33.65625 C 4.765625 -44.800781 7.550781 -53.3125 13.125 -59.1875 C 18.695312 -65.070312 26.796875 -68.015625 37.421875 -68.015625 C 48.078125 -68.015625 56.148438 -65.097656 61.640625 -59.265625 C 67.140625 -53.429688 69.890625 -44.867188 69.890625 -33.578125 Z M 23.8125 -33.578125 C 23.8125 -20.628906 28.316406 -14.15625 37.328125 -14.15625 C 41.910156 -14.15625 45.304688 -15.726562 47.515625 -18.875 C 49.734375 -22.019531 50.84375 -26.921875 50.84375 -33.578125 C 50.84375 -40.253906 49.71875 -45.1875 47.46875 -48.375 C 45.226562 -51.570312 41.878906 -53.171875 37.421875 -53.171875 C 28.347656 -53.171875 23.8125 -46.640625 23.8125 -33.578125 Z M 23.8125 -33.578125 "/></g></g></g><g fill="#000000" fill-opacity="0.4"><g transform="translate(418.078979, 135.013073)"><g><path d="M 25.328125 -24.359375 L 25.328125 0 L 7.234375 0 L 7.234375 -66.953125 L 29.171875 -66.953125 C 47.367188 -66.953125 56.46875 -60.359375 56.46875 -47.171875 C 56.46875 -39.421875 52.679688 -33.421875 45.109375 -29.171875 L 64.625 0 L 44.109375 0 L 29.90625 -24.359375 Z M 25.328125 -37.96875 L 28.71875 -37.96875 C 35.039062 -37.96875 38.203125 -40.757812 38.203125 -46.34375 C 38.203125 -50.957031 35.101562 -53.265625 28.90625 -53.265625 L 25.328125 -53.265625 Z M 25.328125 -37.96875 "/></g></g></g><g fill="#000000" fill-opacity="0.4"><g transform="translate(481.553186, 135.013073)"><g><path d="M 64.4375 0 L 44.015625 0 L 30.78125 -25.609375 L 25.421875 -22.390625 L 25.421875 0 L 7.234375 0 L 7.234375 -66.953125 L 25.421875 -66.953125 L 25.421875 -37.875 C 26.335938 -39.675781 28.179688 -42.53125 30.953125 -46.4375 L 45.015625 -66.953125 L 64.8125 -66.953125 L 43.6875 -36.953125 Z M 64.4375 0 "/></g></g></g><g fill="#000000" fill-opacity="0.4"><g transform="translate(545.989119, 135.013073)"><g><path d="M 69.890625 -33.578125 C 69.890625 -22.304688 67.125 -13.738281 61.59375 -7.875 C 56.070312 -2.007812 47.984375 0.921875 37.328125 0.921875 C 26.828125 0.921875 18.773438 -2.023438 13.171875 -7.921875 C 7.566406 -13.816406 4.765625 -22.394531 4.765625 -33.65625 C 4.765625 -44.800781 7.550781 -53.3125 13.125 -59.1875 C 18.695312 -65.070312 26.796875 -68.015625 37.421875 -68.015625 C 48.078125 -68.015625 56.148438 -65.097656 61.640625 -59.265625 C 67.140625 -53.429688 69.890625 -44.867188 69.890625 -33.578125 Z M 23.8125 -33.578125 C 23.8125 -20.628906 28.316406 -14.15625 37.328125 -14.15625 C 41.910156 -14.15625 45.304688 -15.726562 47.515625 -18.875 C 49.734375 -22.019531 50.84375 -26.921875 50.84375 -33.578125 C 50.84375 -40.253906 49.71875 -45.1875 47.46875 -48.375 C 45.226562 -51.570312 41.878906 -53.171875 37.421875 -53.171875 C 28.347656 -53.171875 23.8125 -46.640625 23.8125 -33.578125 Z M 23.8125 -33.578125 "/></g></g></g><g fill="#000000" fill-opacity="0.4"><g transform="translate(620.729319, 135.013073)"><g><path d="M 64.171875 -66.953125 L 64.171875 -26.65625 C 64.171875 -17.894531 61.6875 -11.109375 56.71875 -6.296875 C 51.757812 -1.484375 44.609375 0.921875 35.265625 0.921875 C 26.140625 0.921875 19.125 -1.410156 14.21875 -6.078125 C 9.320312 -10.753906 6.875 -17.476562 6.875 -26.25 L 6.875 -66.953125 L 25.046875 -66.953125 L 25.046875 -27.65625 C 25.046875 -22.925781 25.929688 -19.492188 27.703125 -17.359375 C 29.472656 -15.222656 32.085938 -14.15625 35.546875 -14.15625 C 39.234375 -14.15625 41.910156 -15.210938 43.578125 -17.328125 C 45.242188 -19.453125 46.078125 -22.925781 46.078125 -27.75 L 46.078125 -66.953125 Z M 64.171875 -66.953125 "/></g></g></g><g fill="#000000" fill-opacity="0.4"><g transform="translate(691.714167, 135.013073)"><g><path d="M 36.78125 0 L 18.6875 0 L 18.6875 -52.171875 L 2.328125 -52.171875 L 2.328125 -66.953125 L 53.078125 -66.953125 L 53.078125 -52.171875 L 36.78125 -52.171875 Z M 36.78125 0 "/></g></g></g><g fill="#e4e4e4" fill-opacity="1"><g transform="translate(8.004408, 129.872838)"><g><path d="M 46.984375 0 L 7.234375 0 L 7.234375 -66.953125 L 46.984375 -66.953125 L 46.984375 -52.4375 L 25.328125 -52.4375 L 25.328125 -41.90625 L 45.390625 -41.90625 L 45.390625 -27.390625 L 25.328125 -27.390625 L 25.328125 -14.75 L 46.984375 -14.75 Z M 46.984375 0 "/></g></g></g><g fill="#e4e4e4" fill-opacity="1"><g transform="translate(59.479889, 129.872838)"><g><path d="M 64.078125 -34.90625 C 64.078125 -23.726562 61 -15.113281 54.84375 -9.0625 C 48.6875 -3.019531 40.039062 0 28.90625 0 L 7.234375 0 L 7.234375 -66.953125 L 30.40625 -66.953125 C 41.15625 -66.953125 49.453125 -64.203125 55.296875 -58.703125 C 61.148438 -53.210938 64.078125 -45.28125 64.078125 -34.90625 Z M 45.296875 -34.265625 C 45.296875 -40.398438 44.082031 -44.945312 41.65625 -47.90625 C 39.226562 -50.863281 35.539062 -52.34375 30.59375 -52.34375 L 25.328125 -52.34375 L 25.328125 -14.84375 L 29.359375 -14.84375 C 34.847656 -14.84375 38.875 -16.4375 41.4375 -19.625 C 44.007812 -22.8125 45.296875 -27.691406 45.296875 -34.265625 Z M 45.296875 -34.265625 "/></g></g></g><g fill="#e4e4e4" fill-opacity="1"><g transform="translate(128.312319, 129.872838)"><g><path d="M 7.234375 0 L 7.234375 -66.953125 L 25.421875 -66.953125 L 25.421875 0 Z M 7.234375 0 "/></g></g></g><g fill="#e4e4e4" fill-opacity="1"><g transform="translate(160.965372, 129.872838)"><g><path d="M 36.78125 0 L 18.6875 0 L 18.6875 -52.171875 L 2.328125 -52.171875 L 2.328125 -66.953125 L 53.078125 -66.953125 L 53.078125 -52.171875 L 36.78125 -52.171875 Z M 36.78125 0 "/></g></g></g><g fill="#e4e4e4" fill-opacity="1"><g transform="translate(216.37936, 129.872838)"><g/></g></g><g fill="#e4e4e4" fill-opacity="1"><g transform="translate(240.7432, 129.872838)"><g><path d="M 79.546875 0 L 58.171875 0 L 51.75 -29.171875 C 51.445312 -30.390625 50.96875 -32.816406 50.3125 -36.453125 C 49.65625 -40.085938 49.175781 -43.125 48.875 -45.5625 C 48.625 -43.582031 48.222656 -41.117188 47.671875 -38.171875 C 47.128906 -35.222656 46.585938 -32.507812 46.046875 -30.03125 C 45.515625 -27.5625 43.296875 -17.550781 39.390625 0 L 18 0 L 1.421875 -66.953125 L 18.875 -66.953125 L 26.15625 -33.390625 C 27.800781 -25.972656 28.929688 -20.0625 29.546875 -15.65625 C 29.941406 -18.769531 30.648438 -23 31.671875 -28.34375 C 32.691406 -33.6875 33.644531 -38.113281 34.53125 -41.625 L 40.4375 -66.953125 L 57.203125 -66.953125 L 62.921875 -41.625 C 63.898438 -37.570312 64.894531 -32.890625 65.90625 -27.578125 C 66.914062 -22.265625 67.585938 -18.289062 67.921875 -15.65625 C 68.316406 -19.050781 69.398438 -24.929688 71.171875 -33.296875 L 78.59375 -66.953125 L 96.046875 -66.953125 Z M 79.546875 0 "/></g></g></g><g fill="#e4e4e4" fill-opacity="1"><g transform="translate(338.198543, 129.872838)"><g><path d="M 69.890625 -33.578125 C 69.890625 -22.304688 67.125 -13.738281 61.59375 -7.875 C 56.070312 -2.007812 47.984375 0.921875 37.328125 0.921875 C 26.828125 0.921875 18.773438 -2.023438 13.171875 -7.921875 C 7.566406 -13.816406 4.765625 -22.394531 4.765625 -33.65625 C 4.765625 -44.800781 7.550781 -53.3125 13.125 -59.1875 C 18.695312 -65.070312 26.796875 -68.015625 37.421875 -68.015625 C 48.078125 -68.015625 56.148438 -65.097656 61.640625 -59.265625 C 67.140625 -53.429688 69.890625 -44.867188 69.890625 -33.578125 Z M 23.8125 -33.578125 C 23.8125 -20.628906 28.316406 -14.15625 37.328125 -14.15625 C 41.910156 -14.15625 45.304688 -15.726562 47.515625 -18.875 C 49.734375 -22.019531 50.84375 -26.921875 50.84375 -33.578125 C 50.84375 -40.253906 49.71875 -45.1875 47.46875 -48.375 C 45.226562 -51.570312 41.878906 -53.171875 37.421875 -53.171875 C 28.347656 -53.171875 23.8125 -46.640625 23.8125 -33.578125 Z M 23.8125 -33.578125 "/></g></g></g><g fill="#e4e4e4" fill-opacity="1"><g transform="translate(412.938743, 129.872838)"><g><path d="M 25.328125 -24.359375 L 25.328125 0 L 7.234375 0 L 7.234375 -66.953125 L 29.171875 -66.953125 C 47.367188 -66.953125 56.46875 -60.359375 56.46875 -47.171875 C 56.46875 -39.421875 52.679688 -33.421875 45.109375 -29.171875 L 64.625 0 L 44.109375 0 L 29.90625 -24.359375 Z M 25.328125 -37.96875 L 28.71875 -37.96875 C 35.039062 -37.96875 38.203125 -40.757812 38.203125 -46.34375 C 38.203125 -50.957031 35.101562 -53.265625 28.90625 -53.265625 L 25.328125 -53.265625 Z M 25.328125 -37.96875 "/></g></g></g><g fill="#e4e4e4" fill-opacity="1"><g transform="translate(476.412949, 129.872838)"><g><path d="M 64.4375 0 L 44.015625 0 L 30.78125 -25.609375 L 25.421875 -22.390625 L 25.421875 0 L 7.234375 0 L 7.234375 -66.953125 L 25.421875 -66.953125 L 25.421875 -37.875 C 26.335938 -39.675781 28.179688 -42.53125 30.953125 -46.4375 L 45.015625 -66.953125 L 64.8125 -66.953125 L 43.6875 -36.953125 Z M 64.4375 0 "/></g></g></g><g fill="#e4e4e4" fill-opacity="1"><g transform="translate(540.848883, 129.872838)"><g><path d="M 69.890625 -33.578125 C 69.890625 -22.304688 67.125 -13.738281 61.59375 -7.875 C 56.070312 -2.007812 47.984375 0.921875 37.328125 0.921875 C 26.828125 0.921875 18.773438 -2.023438 13.171875 -7.921875 C 7.566406 -13.816406 4.765625 -22.394531 4.765625 -33.65625 C 4.765625 -44.800781 7.550781 -53.3125 13.125 -59.1875 C 18.695312 -65.070312 26.796875 -68.015625 37.421875 -68.015625 C 48.078125 -68.015625 56.148438 -65.097656 61.640625 -59.265625 C 67.140625 -53.429688 69.890625 -44.867188 69.890625 -33.578125 Z M 23.8125 -33.578125 C 23.8125 -20.628906 28.316406 -14.15625 37.328125 -14.15625 C 41.910156 -14.15625 45.304688 -15.726562 47.515625 -18.875 C 49.734375 -22.019531 50.84375 -26.921875 50.84375 -33.578125 C 50.84375 -40.253906 49.71875 -45.1875 47.46875 -48.375 C 45.226562 -51.570312 41.878906 -53.171875 37.421875 -53.171875 C 28.347656 -53.171875 23.8125 -46.640625 23.8125 -33.578125 Z M 23.8125 -33.578125 "/></g></g></g><g fill="#e4e4e4" fill-opacity="1"><g transform="translate(615.589082, 129.872838)"><g><path d="M 64.171875 -66.953125 L 64.171875 -26.65625 C 64.171875 -17.894531 61.6875 -11.109375 56.71875 -6.296875 C 51.757812 -1.484375 44.609375 0.921875 35.265625 0.921875 C 26.140625 0.921875 19.125 -1.410156 14.21875 -6.078125 C 9.320312 -10.753906 6.875 -17.476562 6.875 -26.25 L 6.875 -66.953125 L 25.046875 -66.953125 L 25.046875 -27.65625 C 25.046875 -22.925781 25.929688 -19.492188 27.703125 -17.359375 C 29.472656 -15.222656 32.085938 -14.15625 35.546875 -14.15625 C 39.234375 -14.15625 41.910156 -15.210938 43.578125 -17.328125 C 45.242188 -19.453125 46.078125 -22.925781 46.078125 -27.75 L 46.078125 -66.953125 Z M 64.171875 -66.953125 "/></g></g></g><g fill="#e4e4e4" fill-opacity="1"><g transform="translate(686.573931, 129.872838)"><g><path d="M 36.78125 0 L 18.6875 0 L 18.6875 -52.171875 L 2.328125 -52.171875 L 2.328125 -66.953125 L 53.078125 -66.953125 L 53.078125 -52.171875 L 36.78125 -52.171875 Z M 36.78125 0 "/></g></g></g></svg>