<svg xmlns="http://www.w3.org/2000/svg" xmlns:xlink="http://www.w3.org/1999/xlink" width="1000" zoomAndPan="magnify" viewBox="0 0 750 187.499995" height="250" preserveAspectRatio="xMidYMid meet" version="1.0"><defs><g/></defs><g fill="#000000" fill-opacity="0.4"><g transform="translate(12.244801, 130.850688)"><g><path d="M 50.234375 -41.078125 C 50.234375 -34.347656 48.25 -29.148438 44.28125 -25.484375 C 40.3125 -21.816406 34.671875 -19.984375 27.359375 -19.984375 L 22.78125 -19.984375 L 22.78125 0 L 6.515625 0 L 6.515625 -60.25 L 27.359375 -60.25 C 34.972656 -60.25 40.6875 -58.582031 44.5 -55.25 C 48.320312 -51.925781 50.234375 -47.203125 50.234375 -41.078125 Z M 22.78125 -33.25 L 25.75 -33.25 C 28.195312 -33.25 30.140625 -33.9375 31.578125 -35.3125 C 33.023438 -36.6875 33.75 -38.582031 33.75 -41 C 33.75 -45.0625 31.492188 -47.09375 26.984375 -47.09375 L 22.78125 -47.09375 Z M 22.78125 -33.25 "/></g></g></g><g fill="#000000" fill-opacity="0.4"><g transform="translate(65.563711, 130.850688)"><g><path d="M 43.46875 0 L 40.5 -11.296875 L 20.9375 -11.296875 L 17.890625 0 L 0 0 L 19.65625 -60.484375 L 41.375 -60.484375 L 61.28125 0 Z M 37.125 -24.640625 L 34.53125 -34.53125 C 33.925781 -36.726562 33.191406 -39.570312 32.328125 -43.0625 C 31.460938 -46.550781 30.890625 -49.050781 30.609375 -50.5625 C 30.367188 -49.15625 29.882812 -46.84375 29.15625 -43.625 C 28.425781 -40.414062 26.8125 -34.085938 24.3125 -24.640625 Z M 37.125 -24.640625 "/></g></g></g><g fill="#000000" fill-opacity="0.4"><g transform="translate(126.835136, 130.850688)"><g><path d="M 45.90625 -18.296875 C 45.90625 -14.554688 44.957031 -11.238281 43.0625 -8.34375 C 41.164062 -5.445312 38.429688 -3.191406 34.859375 -1.578125 C 31.285156 0.0234375 27.097656 0.828125 22.296875 0.828125 C 18.285156 0.828125 14.921875 0.546875 12.203125 -0.015625 C 9.484375 -0.578125 6.648438 -1.5625 3.703125 -2.96875 L 3.703125 -17.46875 C 6.804688 -15.875 10.035156 -14.628906 13.390625 -13.734375 C 16.742188 -12.847656 19.820312 -12.40625 22.625 -12.40625 C 25.039062 -12.40625 26.8125 -12.820312 27.9375 -13.65625 C 29.0625 -14.5 29.625 -15.578125 29.625 -16.890625 C 29.625 -17.710938 29.394531 -18.429688 28.9375 -19.046875 C 28.488281 -19.671875 27.765625 -20.296875 26.765625 -20.921875 C 25.765625 -21.554688 23.09375 -22.851562 18.75 -24.8125 C 14.820312 -26.59375 11.875 -28.320312 9.90625 -30 C 7.945312 -31.675781 6.492188 -33.597656 5.546875 -35.765625 C 4.597656 -37.929688 4.125 -40.5 4.125 -43.46875 C 4.125 -49.019531 6.140625 -53.347656 10.171875 -56.453125 C 14.210938 -59.554688 19.765625 -61.109375 26.828125 -61.109375 C 33.054688 -61.109375 39.414062 -59.664062 45.90625 -56.78125 L 40.921875 -44.21875 C 35.285156 -46.800781 30.421875 -48.09375 26.328125 -48.09375 C 24.210938 -48.09375 22.675781 -47.71875 21.71875 -46.96875 C 20.757812 -46.226562 20.28125 -45.3125 20.28125 -44.21875 C 20.28125 -43.03125 20.890625 -41.96875 22.109375 -41.03125 C 23.328125 -40.101562 26.644531 -38.40625 32.0625 -35.9375 C 37.25 -33.59375 40.851562 -31.082031 42.875 -28.40625 C 44.894531 -25.726562 45.90625 -22.359375 45.90625 -18.296875 Z M 45.90625 -18.296875 "/></g></g></g><g fill="#000000" fill-opacity="0.4"><g transform="translate(175.539117, 130.850688)"><g><path d="M 33.09375 0 L 16.8125 0 L 16.8125 -46.9375 L 2.09375 -46.9375 L 2.09375 -60.25 L 47.765625 -60.25 L 47.765625 -46.9375 L 33.09375 -46.9375 Z M 33.09375 0 "/></g></g></g><g fill="#000000" fill-opacity="0.4"><g transform="translate(225.396823, 130.850688)"><g/></g></g><g fill="#000000" fill-opacity="0.4"><g transform="translate(247.317722, 130.850688)"><g><path d="M 71.578125 0 L 52.328125 0 L 46.5625 -26.25 C 46.289062 -27.34375 45.859375 -29.523438 45.265625 -32.796875 C 44.671875 -36.066406 44.238281 -38.800781 43.96875 -41 C 43.75 -39.21875 43.390625 -37 42.890625 -34.34375 C 42.398438 -31.695312 41.914062 -29.257812 41.4375 -27.03125 C 40.957031 -24.800781 38.957031 -15.789062 35.4375 0 L 16.1875 0 L 1.28125 -60.25 L 16.984375 -60.25 L 23.53125 -30.046875 C 25.007812 -23.367188 26.023438 -18.050781 26.578125 -14.09375 C 26.929688 -16.894531 27.566406 -20.695312 28.484375 -25.5 C 29.410156 -30.3125 30.269531 -34.296875 31.0625 -37.453125 L 36.390625 -60.25 L 51.46875 -60.25 L 56.625 -37.453125 C 57.5 -33.796875 58.390625 -29.578125 59.296875 -24.796875 C 60.203125 -20.023438 60.804688 -16.457031 61.109375 -14.09375 C 61.460938 -17.144531 62.4375 -22.429688 64.03125 -29.953125 L 70.703125 -60.25 L 86.40625 -60.25 Z M 71.578125 0 "/></g></g></g><g fill="#000000" fill-opacity="0.4"><g transform="translate(335.001369, 130.850688)"><g><path d="M 62.875 -30.203125 C 62.875 -20.066406 60.390625 -12.359375 55.421875 -7.078125 C 50.453125 -1.804688 43.171875 0.828125 33.578125 0.828125 C 24.128906 0.828125 16.882812 -1.820312 11.84375 -7.125 C 6.800781 -12.425781 4.28125 -20.144531 4.28125 -30.28125 C 4.28125 -40.3125 6.785156 -47.96875 11.796875 -53.25 C 16.816406 -58.539062 24.109375 -61.1875 33.671875 -61.1875 C 43.253906 -61.1875 50.515625 -58.5625 55.453125 -53.3125 C 60.398438 -48.070312 62.875 -40.367188 62.875 -30.203125 Z M 21.421875 -30.203125 C 21.421875 -18.554688 25.472656 -12.734375 33.578125 -12.734375 C 37.703125 -12.734375 40.757812 -14.144531 42.75 -16.96875 C 44.738281 -19.800781 45.734375 -24.210938 45.734375 -30.203125 C 45.734375 -36.222656 44.722656 -40.664062 42.703125 -43.53125 C 40.691406 -46.40625 37.679688 -47.84375 33.671875 -47.84375 C 25.503906 -47.84375 21.421875 -41.960938 21.421875 -30.203125 Z M 21.421875 -30.203125 "/></g></g></g><g fill="#000000" fill-opacity="0.4"><g transform="translate(402.247474, 130.850688)"><g><path d="M 22.78125 -21.921875 L 22.78125 0 L 6.515625 0 L 6.515625 -60.25 L 26.25 -60.25 C 42.625 -60.25 50.8125 -54.3125 50.8125 -42.4375 C 50.8125 -35.457031 47.40625 -30.0625 40.59375 -26.25 L 58.140625 0 L 39.6875 0 L 26.90625 -21.921875 Z M 22.78125 -34.15625 L 25.84375 -34.15625 C 31.519531 -34.15625 34.359375 -36.671875 34.359375 -41.703125 C 34.359375 -45.847656 31.570312 -47.921875 26 -47.921875 L 22.78125 -47.921875 Z M 22.78125 -34.15625 "/></g></g></g><g fill="#000000" fill-opacity="0.4"><g transform="translate(459.357212, 130.850688)"><g><path d="M 57.984375 0 L 39.59375 0 L 27.6875 -23.03125 L 22.875 -20.15625 L 22.875 0 L 6.515625 0 L 6.515625 -60.25 L 22.875 -60.25 L 22.875 -34.078125 C 23.695312 -35.703125 25.359375 -38.269531 27.859375 -41.78125 L 40.5 -60.25 L 58.3125 -60.25 L 39.3125 -33.25 Z M 57.984375 0 "/></g></g></g><g fill="#000000" fill-opacity="0.4"><g transform="translate(517.332245, 130.850688)"><g><path d="M 62.875 -30.203125 C 62.875 -20.066406 60.390625 -12.359375 55.421875 -7.078125 C 50.453125 -1.804688 43.171875 0.828125 33.578125 0.828125 C 24.128906 0.828125 16.882812 -1.820312 11.84375 -7.125 C 6.800781 -12.425781 4.28125 -20.144531 4.28125 -30.28125 C 4.28125 -40.3125 6.785156 -47.96875 11.796875 -53.25 C 16.816406 -58.539062 24.109375 -61.1875 33.671875 -61.1875 C 43.253906 -61.1875 50.515625 -58.5625 55.453125 -53.3125 C 60.398438 -48.070312 62.875 -40.367188 62.875 -30.203125 Z M 21.421875 -30.203125 C 21.421875 -18.554688 25.472656 -12.734375 33.578125 -12.734375 C 37.703125 -12.734375 40.757812 -14.144531 42.75 -16.96875 C 44.738281 -19.800781 45.734375 -24.210938 45.734375 -30.203125 C 45.734375 -36.222656 44.722656 -40.664062 42.703125 -43.53125 C 40.691406 -46.40625 37.679688 -47.84375 33.671875 -47.84375 C 25.503906 -47.84375 21.421875 -41.960938 21.421875 -30.203125 Z M 21.421875 -30.203125 "/></g></g></g><g fill="#000000" fill-opacity="0.4"><g transform="translate(584.578351, 130.850688)"><g><path d="M 57.734375 -60.25 L 57.734375 -23.984375 C 57.734375 -16.097656 55.5 -9.988281 51.03125 -5.65625 C 46.570312 -1.332031 40.140625 0.828125 31.734375 0.828125 C 23.515625 0.828125 17.203125 -1.269531 12.796875 -5.46875 C 8.390625 -9.675781 6.1875 -15.722656 6.1875 -23.609375 L 6.1875 -60.25 L 22.546875 -60.25 L 22.546875 -24.890625 C 22.546875 -20.628906 23.335938 -17.535156 24.921875 -15.609375 C 26.515625 -13.691406 28.863281 -12.734375 31.96875 -12.734375 C 35.300781 -12.734375 37.710938 -13.6875 39.203125 -15.59375 C 40.703125 -17.5 41.453125 -20.625 41.453125 -24.96875 L 41.453125 -60.25 Z M 57.734375 -60.25 "/></g></g></g><g fill="#000000" fill-opacity="0.4"><g transform="translate(648.445649, 130.850688)"><g><path d="M 33.09375 0 L 16.8125 0 L 16.8125 -46.9375 L 2.09375 -46.9375 L 2.09375 -60.25 L 47.765625 -60.25 L 47.765625 -46.9375 L 33.09375 -46.9375 Z M 33.09375 0 "/></g></g></g><g fill="#000000" fill-opacity="0.4"><g transform="translate(698.303355, 130.850688)"><g><path d="M 45.90625 -18.296875 C 45.90625 -14.554688 44.957031 -11.238281 43.0625 -8.34375 C 41.164062 -5.445312 38.429688 -3.191406 34.859375 -1.578125 C 31.285156 0.0234375 27.097656 0.828125 22.296875 0.828125 C 18.285156 0.828125 14.921875 0.546875 12.203125 -0.015625 C 9.484375 -0.578125 6.648438 -1.5625 3.703125 -2.96875 L 3.703125 -17.46875 C 6.804688 -15.875 10.035156 -14.628906 13.390625 -13.734375 C 16.742188 -12.847656 19.820312 -12.40625 22.625 -12.40625 C 25.039062 -12.40625 26.8125 -12.820312 27.9375 -13.65625 C 29.0625 -14.5 29.625 -15.578125 29.625 -16.890625 C 29.625 -17.710938 29.394531 -18.429688 28.9375 -19.046875 C 28.488281 -19.671875 27.765625 -20.296875 26.765625 -20.921875 C 25.765625 -21.554688 23.09375 -22.851562 18.75 -24.8125 C 14.820312 -26.59375 11.875 -28.320312 9.90625 -30 C 7.945312 -31.675781 6.492188 -33.597656 5.546875 -35.765625 C 4.597656 -37.929688 4.125 -40.5 4.125 -43.46875 C 4.125 -49.019531 6.140625 -53.347656 10.171875 -56.453125 C 14.210938 -59.554688 19.765625 -61.109375 26.828125 -61.109375 C 33.054688 -61.109375 39.414062 -59.664062 45.90625 -56.78125 L 40.921875 -44.21875 C 35.285156 -46.800781 30.421875 -48.09375 26.328125 -48.09375 C 24.210938 -48.09375 22.675781 -47.71875 21.71875 -46.96875 C 20.757812 -46.226562 20.28125 -45.3125 20.28125 -44.21875 C 20.28125 -43.03125 20.890625 -41.96875 22.109375 -41.03125 C 23.328125 -40.101562 26.644531 -38.40625 32.0625 -35.9375 C 37.25 -33.59375 40.851562 -31.082031 42.875 -28.40625 C 44.894531 -25.726562 45.90625 -22.359375 45.90625 -18.296875 Z M 45.90625 -18.296875 "/></g></g></g><g fill="#e4e4e4" fill-opacity="1"><g transform="translate(7.619971, 126.225857)"><g><path d="M 50.234375 -41.078125 C 50.234375 -34.347656 48.25 -29.148438 44.28125 -25.484375 C 40.3125 -21.816406 34.671875 -19.984375 27.359375 -19.984375 L 22.78125 -19.984375 L 22.78125 0 L 6.515625 0 L 6.515625 -60.25 L 27.359375 -60.25 C 34.972656 -60.25 40.6875 -58.582031 44.5 -55.25 C 48.320312 -51.925781 50.234375 -47.203125 50.234375 -41.078125 Z M 22.78125 -33.25 L 25.75 -33.25 C 28.195312 -33.25 30.140625 -33.9375 31.578125 -35.3125 C 33.023438 -36.6875 33.75 -38.582031 33.75 -41 C 33.75 -45.0625 31.492188 -47.09375 26.984375 -47.09375 L 22.78125 -47.09375 Z M 22.78125 -33.25 "/></g></g></g><g fill="#e4e4e4" fill-opacity="1"><g transform="translate(60.938881, 126.225857)"><g><path d="M 43.46875 0 L 40.5 -11.296875 L 20.9375 -11.296875 L 17.890625 0 L 0 0 L 19.65625 -60.484375 L 41.375 -60.484375 L 61.28125 0 Z M 37.125 -24.640625 L 34.53125 -34.53125 C 33.925781 -36.726562 33.191406 -39.570312 32.328125 -43.0625 C 31.460938 -46.550781 30.890625 -49.050781 30.609375 -50.5625 C 30.367188 -49.15625 29.882812 -46.84375 29.15625 -43.625 C 28.425781 -40.414062 26.8125 -34.085938 24.3125 -24.640625 Z M 37.125 -24.640625 "/></g></g></g><g fill="#e4e4e4" fill-opacity="1"><g transform="translate(122.210305, 126.225857)"><g><path d="M 45.90625 -18.296875 C 45.90625 -14.554688 44.957031 -11.238281 43.0625 -8.34375 C 41.164062 -5.445312 38.429688 -3.191406 34.859375 -1.578125 C 31.285156 0.0234375 27.097656 0.828125 22.296875 0.828125 C 18.285156 0.828125 14.921875 0.546875 12.203125 -0.015625 C 9.484375 -0.578125 6.648438 -1.5625 3.703125 -2.96875 L 3.703125 -17.46875 C 6.804688 -15.875 10.035156 -14.628906 13.390625 -13.734375 C 16.742188 -12.847656 19.820312 -12.40625 22.625 -12.40625 C 25.039062 -12.40625 26.8125 -12.820312 27.9375 -13.65625 C 29.0625 -14.5 29.625 -15.578125 29.625 -16.890625 C 29.625 -17.710938 29.394531 -18.429688 28.9375 -19.046875 C 28.488281 -19.671875 27.765625 -20.296875 26.765625 -20.921875 C 25.765625 -21.554688 23.09375 -22.851562 18.75 -24.8125 C 14.820312 -26.59375 11.875 -28.320312 9.90625 -30 C 7.945312 -31.675781 6.492188 -33.597656 5.546875 -35.765625 C 4.597656 -37.929688 4.125 -40.5 4.125 -43.46875 C 4.125 -49.019531 6.140625 -53.347656 10.171875 -56.453125 C 14.210938 -59.554688 19.765625 -61.109375 26.828125 -61.109375 C 33.054688 -61.109375 39.414062 -59.664062 45.90625 -56.78125 L 40.921875 -44.21875 C 35.285156 -46.800781 30.421875 -48.09375 26.328125 -48.09375 C 24.210938 -48.09375 22.675781 -47.71875 21.71875 -46.96875 C 20.757812 -46.226562 20.28125 -45.3125 20.28125 -44.21875 C 20.28125 -43.03125 20.890625 -41.96875 22.109375 -41.03125 C 23.328125 -40.101562 26.644531 -38.40625 32.0625 -35.9375 C 37.25 -33.59375 40.851562 -31.082031 42.875 -28.40625 C 44.894531 -25.726562 45.90625 -22.359375 45.90625 -18.296875 Z M 45.90625 -18.296875 "/></g></g></g><g fill="#e4e4e4" fill-opacity="1"><g transform="translate(170.914287, 126.225857)"><g><path d="M 33.09375 0 L 16.8125 0 L 16.8125 -46.9375 L 2.09375 -46.9375 L 2.09375 -60.25 L 47.765625 -60.25 L 47.765625 -46.9375 L 33.09375 -46.9375 Z M 33.09375 0 "/></g></g></g><g fill="#e4e4e4" fill-opacity="1"><g transform="translate(220.771993, 126.225857)"><g/></g></g><g fill="#e4e4e4" fill-opacity="1"><g transform="translate(242.692891, 126.225857)"><g><path d="M 71.578125 0 L 52.328125 0 L 46.5625 -26.25 C 46.289062 -27.34375 45.859375 -29.523438 45.265625 -32.796875 C 44.671875 -36.066406 44.238281 -38.800781 43.96875 -41 C 43.75 -39.21875 43.390625 -37 42.890625 -34.34375 C 42.398438 -31.695312 41.914062 -29.257812 41.4375 -27.03125 C 40.957031 -24.800781 38.957031 -15.789062 35.4375 0 L 16.1875 0 L 1.28125 -60.25 L 16.984375 -60.25 L 23.53125 -30.046875 C 25.007812 -23.367188 26.023438 -18.050781 26.578125 -14.09375 C 26.929688 -16.894531 27.566406 -20.695312 28.484375 -25.5 C 29.410156 -30.3125 30.269531 -34.296875 31.0625 -37.453125 L 36.390625 -60.25 L 51.46875 -60.25 L 56.625 -37.453125 C 57.5 -33.796875 58.390625 -29.578125 59.296875 -24.796875 C 60.203125 -20.023438 60.804688 -16.457031 61.109375 -14.09375 C 61.460938 -17.144531 62.4375 -22.429688 64.03125 -29.953125 L 70.703125 -60.25 L 86.40625 -60.25 Z M 71.578125 0 "/></g></g></g><g fill="#e4e4e4" fill-opacity="1"><g transform="translate(330.376538, 126.225857)"><g><path d="M 62.875 -30.203125 C 62.875 -20.066406 60.390625 -12.359375 55.421875 -7.078125 C 50.453125 -1.804688 43.171875 0.828125 33.578125 0.828125 C 24.128906 0.828125 16.882812 -1.820312 11.84375 -7.125 C 6.800781 -12.425781 4.28125 -20.144531 4.28125 -30.28125 C 4.28125 -40.3125 6.785156 -47.96875 11.796875 -53.25 C 16.816406 -58.539062 24.109375 -61.1875 33.671875 -61.1875 C 43.253906 -61.1875 50.515625 -58.5625 55.453125 -53.3125 C 60.398438 -48.070312 62.875 -40.367188 62.875 -30.203125 Z M 21.421875 -30.203125 C 21.421875 -18.554688 25.472656 -12.734375 33.578125 -12.734375 C 37.703125 -12.734375 40.757812 -14.144531 42.75 -16.96875 C 44.738281 -19.800781 45.734375 -24.210938 45.734375 -30.203125 C 45.734375 -36.222656 44.722656 -40.664062 42.703125 -43.53125 C 40.691406 -46.40625 37.679688 -47.84375 33.671875 -47.84375 C 25.503906 -47.84375 21.421875 -41.960938 21.421875 -30.203125 Z M 21.421875 -30.203125 "/></g></g></g><g fill="#e4e4e4" fill-opacity="1"><g transform="translate(397.622644, 126.225857)"><g><path d="M 22.78125 -21.921875 L 22.78125 0 L 6.515625 0 L 6.515625 -60.25 L 26.25 -60.25 C 42.625 -60.25 50.8125 -54.3125 50.8125 -42.4375 C 50.8125 -35.457031 47.40625 -30.0625 40.59375 -26.25 L 58.140625 0 L 39.6875 0 L 26.90625 -21.921875 Z M 22.78125 -34.15625 L 25.84375 -34.15625 C 31.519531 -34.15625 34.359375 -36.671875 34.359375 -41.703125 C 34.359375 -45.847656 31.570312 -47.921875 26 -47.921875 L 22.78125 -47.921875 Z M 22.78125 -34.15625 "/></g></g></g><g fill="#e4e4e4" fill-opacity="1"><g transform="translate(454.732381, 126.225857)"><g><path d="M 57.984375 0 L 39.59375 0 L 27.6875 -23.03125 L 22.875 -20.15625 L 22.875 0 L 6.515625 0 L 6.515625 -60.25 L 22.875 -60.25 L 22.875 -34.078125 C 23.695312 -35.703125 25.359375 -38.269531 27.859375 -41.78125 L 40.5 -60.25 L 58.3125 -60.25 L 39.3125 -33.25 Z M 57.984375 0 "/></g></g></g><g fill="#e4e4e4" fill-opacity="1"><g transform="translate(512.707414, 126.225857)"><g><path d="M 62.875 -30.203125 C 62.875 -20.066406 60.390625 -12.359375 55.421875 -7.078125 C 50.453125 -1.804688 43.171875 0.828125 33.578125 0.828125 C 24.128906 0.828125 16.882812 -1.820312 11.84375 -7.125 C 6.800781 -12.425781 4.28125 -20.144531 4.28125 -30.28125 C 4.28125 -40.3125 6.785156 -47.96875 11.796875 -53.25 C 16.816406 -58.539062 24.109375 -61.1875 33.671875 -61.1875 C 43.253906 -61.1875 50.515625 -58.5625 55.453125 -53.3125 C 60.398438 -48.070312 62.875 -40.367188 62.875 -30.203125 Z M 21.421875 -30.203125 C 21.421875 -18.554688 25.472656 -12.734375 33.578125 -12.734375 C 37.703125 -12.734375 40.757812 -14.144531 42.75 -16.96875 C 44.738281 -19.800781 45.734375 -24.210938 45.734375 -30.203125 C 45.734375 -36.222656 44.722656 -40.664062 42.703125 -43.53125 C 40.691406 -46.40625 37.679688 -47.84375 33.671875 -47.84375 C 25.503906 -47.84375 21.421875 -41.960938 21.421875 -30.203125 Z M 21.421875 -30.203125 "/></g></g></g><g fill="#e4e4e4" fill-opacity="1"><g transform="translate(579.95352, 126.225857)"><g><path d="M 57.734375 -60.25 L 57.734375 -23.984375 C 57.734375 -16.097656 55.5 -9.988281 51.03125 -5.65625 C 46.570312 -1.332031 40.140625 0.828125 31.734375 0.828125 C 23.515625 0.828125 17.203125 -1.269531 12.796875 -5.46875 C 8.390625 -9.675781 6.1875 -15.722656 6.1875 -23.609375 L 6.1875 -60.25 L 22.546875 -60.25 L 22.546875 -24.890625 C 22.546875 -20.628906 23.335938 -17.535156 24.921875 -15.609375 C 26.515625 -13.691406 28.863281 -12.734375 31.96875 -12.734375 C 35.300781 -12.734375 37.710938 -13.6875 39.203125 -15.59375 C 40.703125 -17.5 41.453125 -20.625 41.453125 -24.96875 L 41.453125 -60.25 Z M 57.734375 -60.25 "/></g></g></g><g fill="#e4e4e4" fill-opacity="1"><g transform="translate(643.820818, 126.225857)"><g><path d="M 33.09375 0 L 16.8125 0 L 16.8125 -46.9375 L 2.09375 -46.9375 L 2.09375 -60.25 L 47.765625 -60.25 L 47.765625 -46.9375 L 33.09375 -46.9375 Z M 33.09375 0 "/></g></g></g><g fill="#e4e4e4" fill-opacity="1"><g transform="translate(693.678524, 126.225857)"><g><path d="M 45.90625 -18.296875 C 45.90625 -14.554688 44.957031 -11.238281 43.0625 -8.34375 C 41.164062 -5.445312 38.429688 -3.191406 34.859375 -1.578125 C 31.285156 0.0234375 27.097656 0.828125 22.296875 0.828125 C 18.285156 0.828125 14.921875 0.546875 12.203125 -0.015625 C 9.484375 -0.578125 6.648438 -1.5625 3.703125 -2.96875 L 3.703125 -17.46875 C 6.804688 -15.875 10.035156 -14.628906 13.390625 -13.734375 C 16.742188 -12.847656 19.820312 -12.40625 22.625 -12.40625 C 25.039062 -12.40625 26.8125 -12.820312 27.9375 -13.65625 C 29.0625 -14.5 29.625 -15.578125 29.625 -16.890625 C 29.625 -17.710938 29.394531 -18.429688 28.9375 -19.046875 C 28.488281 -19.671875 27.765625 -20.296875 26.765625 -20.921875 C 25.765625 -21.554688 23.09375 -22.851562 18.75 -24.8125 C 14.820312 -26.59375 11.875 -28.320312 9.90625 -30 C 7.945312 -31.675781 6.492188 -33.597656 5.546875 -35.765625 C 4.597656 -37.929688 4.125 -40.5 4.125 -43.46875 C 4.125 -49.019531 6.140625 -53.347656 10.171875 -56.453125 C 14.210938 -59.554688 19.765625 -61.109375 26.828125 -61.109375 C 33.054688 -61.109375 39.414062 -59.664062 45.90625 -56.78125 L 40.921875 -44.21875 C 35.285156 -46.800781 30.421875 -48.09375 26.328125 -48.09375 C 24.210938 -48.09375 22.675781 -47.71875 21.71875 -46.96875 C 20.757812 -46.226562 20.28125 -45.3125 20.28125 -44.21875 C 20.28125 -43.03125 20.890625 -41.96875 22.109375 -41.03125 C 23.328125 -40.101562 26.644531 -38.40625 32.0625 -35.9375 C 37.25 -33.59375 40.851562 -31.082031 42.875 -28.40625 C 44.894531 -25.726562 45.90625 -22.359375 45.90625 -18.296875 Z M 45.90625 -18.296875 "/></g></g></g></svg>