<svg xmlns="http://www.w3.org/2000/svg" xmlns:xlink="http://www.w3.org/1999/xlink" width="1000" zoomAndPan="magnify" viewBox="0 0 750 187.499995" height="250" preserveAspectRatio="xMidYMid meet" version="1.0"><defs><g/></defs><g fill="#000000" fill-opacity="0.4"><g transform="translate(18.400428, 163.669532)"><g><path d="M 96.0625 -38.28125 C 96.0625 -30.46875 94.078125 -23.523438 90.109375 -17.453125 C 86.148438 -11.390625 80.429688 -6.675781 72.953125 -3.3125 C 65.484375 0.0390625 56.71875 1.71875 46.65625 1.71875 C 38.257812 1.71875 31.210938 1.128906 25.515625 -0.046875 C 19.828125 -1.222656 13.910156 -3.273438 7.765625 -6.203125 L 7.765625 -36.5625 C 14.253906 -33.226562 21.003906 -30.625 28.015625 -28.75 C 35.035156 -26.882812 41.476562 -25.953125 47.34375 -25.953125 C 52.40625 -25.953125 56.113281 -26.828125 58.46875 -28.578125 C 60.820312 -30.335938 62 -32.597656 62 -35.359375 C 62 -37.078125 61.523438 -38.582031 60.578125 -39.875 C 59.628906 -41.175781 58.101562 -42.488281 56 -43.8125 C 53.90625 -45.132812 48.316406 -47.832031 39.234375 -51.90625 C 31.015625 -55.644531 24.847656 -59.269531 20.734375 -62.78125 C 16.628906 -66.289062 13.582031 -70.316406 11.59375 -74.859375 C 9.613281 -79.398438 8.625 -84.773438 8.625 -90.984375 C 8.625 -102.585938 12.847656 -111.640625 21.296875 -118.140625 C 29.753906 -124.640625 41.367188 -127.890625 56.140625 -127.890625 C 69.191406 -127.890625 82.5 -124.867188 96.0625 -118.828125 L 85.625 -92.53125 C 73.84375 -97.9375 63.671875 -100.640625 55.109375 -100.640625 C 50.679688 -100.640625 47.457031 -99.863281 45.4375 -98.3125 C 43.425781 -96.757812 42.421875 -94.832031 42.421875 -92.53125 C 42.421875 -90.0625 43.703125 -87.847656 46.265625 -85.890625 C 48.828125 -83.929688 55.769531 -80.367188 67.09375 -75.203125 C 77.957031 -70.304688 85.5 -65.054688 89.71875 -59.453125 C 93.945312 -53.847656 96.0625 -46.789062 96.0625 -38.28125 Z M 96.0625 -38.28125 "/></g></g><g transform="translate(120.327704, 163.669532)"><g><path d="M 13.625 0 L 13.625 -126.078125 L 47.859375 -126.078125 L 47.859375 0 Z M 13.625 0 "/></g></g><g transform="translate(181.811754, 163.669532)"><g><path d="M 64.25 -73.8125 L 118.65625 -73.8125 L 118.65625 -5.859375 C 103.882812 -0.804688 87.644531 1.71875 69.9375 1.71875 C 50.507812 1.71875 35.488281 -3.910156 24.875 -15.171875 C 14.269531 -26.441406 8.96875 -42.507812 8.96875 -63.375 C 8.96875 -83.726562 14.773438 -99.566406 26.390625 -110.890625 C 38.003906 -122.222656 54.273438 -127.890625 75.203125 -127.890625 C 83.128906 -127.890625 90.613281 -127.140625 97.65625 -125.640625 C 104.695312 -124.148438 110.835938 -122.253906 116.078125 -119.953125 L 105.296875 -93.21875 C 96.210938 -97.707031 86.238281 -99.953125 75.375 -99.953125 C 65.425781 -99.953125 57.734375 -96.71875 52.296875 -90.25 C 46.867188 -83.78125 44.15625 -74.535156 44.15625 -62.515625 C 44.15625 -50.734375 46.613281 -41.75 51.53125 -35.5625 C 56.445312 -29.382812 63.53125 -26.296875 72.78125 -26.296875 C 77.84375 -26.296875 82.5 -26.785156 86.75 -27.765625 L 86.75 -47.515625 L 64.25 -47.515625 Z M 64.25 -73.8125 "/></g></g><g transform="translate(312.540816, 163.669532)"><g><path d="M 133.671875 0 L 89 0 L 42.9375 -88.828125 L 42.171875 -88.828125 C 43.265625 -74.847656 43.8125 -64.179688 43.8125 -56.828125 L 43.8125 0 L 13.625 0 L 13.625 -126.078125 L 58.125 -126.078125 L 104 -38.453125 L 104.515625 -38.453125 C 103.710938 -51.160156 103.3125 -61.367188 103.3125 -69.078125 L 103.3125 -126.078125 L 133.671875 -126.078125 Z M 133.671875 0 "/></g></g><g transform="translate(459.826592, 163.669532)"><g/></g><g transform="translate(505.70249, 163.669532)"><g><path d="M 120.8125 -126.078125 L 120.8125 -50.1875 C 120.8125 -33.6875 116.140625 -20.910156 106.796875 -11.859375 C 97.453125 -2.804688 83.988281 1.71875 66.40625 1.71875 C 49.207031 1.71875 35.992188 -2.675781 26.765625 -11.46875 C 17.546875 -20.257812 12.9375 -32.90625 12.9375 -49.40625 L 12.9375 -126.078125 L 47.171875 -126.078125 L 47.171875 -52.09375 C 47.171875 -43.175781 48.835938 -36.703125 52.171875 -32.671875 C 55.503906 -28.648438 60.421875 -26.640625 66.921875 -26.640625 C 73.878906 -26.640625 78.921875 -28.640625 82.046875 -32.640625 C 85.179688 -36.640625 86.75 -43.179688 86.75 -52.265625 L 86.75 -126.078125 Z M 120.8125 -126.078125 "/></g></g><g transform="translate(639.36347, 163.669532)"><g><path d="M 105.125 -85.96875 C 105.125 -71.882812 100.96875 -61.003906 92.65625 -53.328125 C 84.351562 -45.660156 72.554688 -41.828125 57.265625 -41.828125 L 47.6875 -41.828125 L 47.6875 0 L 13.625 0 L 13.625 -126.078125 L 57.265625 -126.078125 C 73.179688 -126.078125 85.132812 -122.597656 93.125 -115.640625 C 101.125 -108.679688 105.125 -98.789062 105.125 -85.96875 Z M 47.6875 -69.59375 L 53.890625 -69.59375 C 59.015625 -69.59375 63.082031 -71.03125 66.09375 -73.90625 C 69.113281 -76.78125 70.625 -80.742188 70.625 -85.796875 C 70.625 -94.304688 65.910156 -98.5625 56.484375 -98.5625 L 47.6875 -98.5625 Z M 47.6875 -69.59375 "/></g></g></g><g fill="#e4e4e4" fill-opacity="1"><g transform="translate(8.722341, 153.991443)"><g><path d="M 96.0625 -38.28125 C 96.0625 -30.46875 94.078125 -23.523438 90.109375 -17.453125 C 86.148438 -11.390625 80.429688 -6.675781 72.953125 -3.3125 C 65.484375 0.0390625 56.71875 1.71875 46.65625 1.71875 C 38.257812 1.71875 31.210938 1.128906 25.515625 -0.046875 C 19.828125 -1.222656 13.910156 -3.273438 7.765625 -6.203125 L 7.765625 -36.5625 C 14.253906 -33.226562 21.003906 -30.625 28.015625 -28.75 C 35.035156 -26.882812 41.476562 -25.953125 47.34375 -25.953125 C 52.40625 -25.953125 56.113281 -26.828125 58.46875 -28.578125 C 60.820312 -30.335938 62 -32.597656 62 -35.359375 C 62 -37.078125 61.523438 -38.582031 60.578125 -39.875 C 59.628906 -41.175781 58.101562 -42.488281 56 -43.8125 C 53.90625 -45.132812 48.316406 -47.832031 39.234375 -51.90625 C 31.015625 -55.644531 24.847656 -59.269531 20.734375 -62.78125 C 16.628906 -66.289062 13.582031 -70.316406 11.59375 -74.859375 C 9.613281 -79.398438 8.625 -84.773438 8.625 -90.984375 C 8.625 -102.585938 12.847656 -111.640625 21.296875 -118.140625 C 29.753906 -124.640625 41.367188 -127.890625 56.140625 -127.890625 C 69.191406 -127.890625 82.5 -124.867188 96.0625 -118.828125 L 85.625 -92.53125 C 73.84375 -97.9375 63.671875 -100.640625 55.109375 -100.640625 C 50.679688 -100.640625 47.457031 -99.863281 45.4375 -98.3125 C 43.425781 -96.757812 42.421875 -94.832031 42.421875 -92.53125 C 42.421875 -90.0625 43.703125 -87.847656 46.265625 -85.890625 C 48.828125 -83.929688 55.769531 -80.367188 67.09375 -75.203125 C 77.957031 -70.304688 85.5 -65.054688 89.71875 -59.453125 C 93.945312 -53.847656 96.0625 -46.789062 96.0625 -38.28125 Z M 96.0625 -38.28125 "/></g></g><g transform="translate(110.649617, 153.991443)"><g><path d="M 13.625 0 L 13.625 -126.078125 L 47.859375 -126.078125 L 47.859375 0 Z M 13.625 0 "/></g></g><g transform="translate(172.133667, 153.991443)"><g><path d="M 64.25 -73.8125 L 118.65625 -73.8125 L 118.65625 -5.859375 C 103.882812 -0.804688 87.644531 1.71875 69.9375 1.71875 C 50.507812 1.71875 35.488281 -3.910156 24.875 -15.171875 C 14.269531 -26.441406 8.96875 -42.507812 8.96875 -63.375 C 8.96875 -83.726562 14.773438 -99.566406 26.390625 -110.890625 C 38.003906 -122.222656 54.273438 -127.890625 75.203125 -127.890625 C 83.128906 -127.890625 90.613281 -127.140625 97.65625 -125.640625 C 104.695312 -124.148438 110.835938 -122.253906 116.078125 -119.953125 L 105.296875 -93.21875 C 96.210938 -97.707031 86.238281 -99.953125 75.375 -99.953125 C 65.425781 -99.953125 57.734375 -96.71875 52.296875 -90.25 C 46.867188 -83.78125 44.15625 -74.535156 44.15625 -62.515625 C 44.15625 -50.734375 46.613281 -41.75 51.53125 -35.5625 C 56.445312 -29.382812 63.53125 -26.296875 72.78125 -26.296875 C 77.84375 -26.296875 82.5 -26.785156 86.75 -27.765625 L 86.75 -47.515625 L 64.25 -47.515625 Z M 64.25 -73.8125 "/></g></g><g transform="translate(302.862728, 153.991443)"><g><path d="M 133.671875 0 L 89 0 L 42.9375 -88.828125 L 42.171875 -88.828125 C 43.265625 -74.847656 43.8125 -64.179688 43.8125 -56.828125 L 43.8125 0 L 13.625 0 L 13.625 -126.078125 L 58.125 -126.078125 L 104 -38.453125 L 104.515625 -38.453125 C 103.710938 -51.160156 103.3125 -61.367188 103.3125 -69.078125 L 103.3125 -126.078125 L 133.671875 -126.078125 Z M 133.671875 0 "/></g></g><g transform="translate(450.148505, 153.991443)"><g/></g><g transform="translate(496.024403, 153.991443)"><g><path d="M 120.8125 -126.078125 L 120.8125 -50.1875 C 120.8125 -33.6875 116.140625 -20.910156 106.796875 -11.859375 C 97.453125 -2.804688 83.988281 1.71875 66.40625 1.71875 C 49.207031 1.71875 35.992188 -2.675781 26.765625 -11.46875 C 17.546875 -20.257812 12.9375 -32.90625 12.9375 -49.40625 L 12.9375 -126.078125 L 47.171875 -126.078125 L 47.171875 -52.09375 C 47.171875 -43.175781 48.835938 -36.703125 52.171875 -32.671875 C 55.503906 -28.648438 60.421875 -26.640625 66.921875 -26.640625 C 73.878906 -26.640625 78.921875 -28.640625 82.046875 -32.640625 C 85.179688 -36.640625 86.75 -43.179688 86.75 -52.265625 L 86.75 -126.078125 Z M 120.8125 -126.078125 "/></g></g><g transform="translate(629.685382, 153.991443)"><g><path d="M 105.125 -85.96875 C 105.125 -71.882812 100.96875 -61.003906 92.65625 -53.328125 C 84.351562 -45.660156 72.554688 -41.828125 57.265625 -41.828125 L 47.6875 -41.828125 L 47.6875 0 L 13.625 0 L 13.625 -126.078125 L 57.265625 -126.078125 C 73.179688 -126.078125 85.132812 -122.597656 93.125 -115.640625 C 101.125 -108.679688 105.125 -98.789062 105.125 -85.96875 Z M 47.6875 -69.59375 L 53.890625 -69.59375 C 59.015625 -69.59375 63.082031 -71.03125 66.09375 -73.90625 C 69.113281 -76.78125 70.625 -80.742188 70.625 -85.796875 C 70.625 -94.304688 65.910156 -98.5625 56.484375 -98.5625 L 47.6875 -98.5625 Z M 47.6875 -69.59375 "/></g></g></g></svg>