<svg xmlns="http://www.w3.org/2000/svg" xmlns:xlink="http://www.w3.org/1999/xlink" width="1000" zoomAndPan="magnify" viewBox="0 0 750 187.499995" height="250" preserveAspectRatio="xMidYMid meet" version="1.0"><defs><g/></defs><g fill="#000000" fill-opacity="0.4"><g transform="translate(15.93952, 147.880293)"><g><path d="M 71.46875 -28.484375 C 71.46875 -22.671875 69.988281 -17.503906 67.03125 -12.984375 C 64.082031 -8.472656 59.828125 -4.96875 54.265625 -2.46875 C 48.710938 0.03125 42.191406 1.28125 34.703125 1.28125 C 28.460938 1.28125 23.222656 0.84375 18.984375 -0.03125 C 14.753906 -0.90625 10.351562 -2.4375 5.78125 -4.625 L 5.78125 -27.203125 C 10.613281 -24.722656 15.632812 -22.785156 20.84375 -21.390625 C 26.0625 -20.003906 30.851562 -19.3125 35.21875 -19.3125 C 38.976562 -19.3125 41.734375 -19.960938 43.484375 -21.265625 C 45.242188 -22.566406 46.125 -24.242188 46.125 -26.296875 C 46.125 -27.585938 45.769531 -28.710938 45.0625 -29.671875 C 44.363281 -30.628906 43.234375 -31.597656 41.671875 -32.578125 C 40.109375 -33.566406 35.945312 -35.582031 29.1875 -38.625 C 23.070312 -41.40625 18.484375 -44.097656 15.421875 -46.703125 C 12.367188 -49.316406 10.101562 -52.3125 8.625 -55.6875 C 7.15625 -59.0625 6.421875 -63.0625 6.421875 -67.6875 C 6.421875 -76.320312 9.5625 -83.054688 15.84375 -87.890625 C 22.132812 -92.722656 30.773438 -95.140625 41.765625 -95.140625 C 51.472656 -95.140625 61.375 -92.894531 71.46875 -88.40625 L 63.703125 -68.84375 C 54.929688 -72.863281 47.363281 -74.875 41 -74.875 C 37.707031 -74.875 35.3125 -74.296875 33.8125 -73.140625 C 32.3125 -71.984375 31.5625 -70.550781 31.5625 -68.84375 C 31.5625 -67 32.515625 -65.347656 34.421875 -63.890625 C 36.328125 -62.441406 41.488281 -59.789062 49.90625 -55.9375 C 57.988281 -52.300781 63.601562 -48.398438 66.75 -44.234375 C 69.894531 -40.066406 71.46875 -34.816406 71.46875 -28.484375 Z M 71.46875 -28.484375 "/></g></g></g><g fill="#000000" fill-opacity="0.4"><g transform="translate(91.769118, 147.880293)"><g><path d="M 51.515625 0 L 26.171875 0 L 26.171875 -73.078125 L 3.265625 -73.078125 L 3.265625 -93.796875 L 74.359375 -93.796875 L 74.359375 -73.078125 L 51.515625 -73.078125 Z M 51.515625 0 "/></g></g></g><g fill="#000000" fill-opacity="0.4"><g transform="translate(169.395017, 147.880293)"><g><path d="M 67.6875 0 L 63.0625 -17.578125 L 32.59375 -17.578125 L 27.84375 0 L 0 0 L 30.609375 -94.1875 L 64.40625 -94.1875 L 95.40625 0 Z M 57.796875 -38.359375 L 53.765625 -53.765625 C 52.816406 -57.179688 51.671875 -61.601562 50.328125 -67.03125 C 48.984375 -72.46875 48.097656 -76.363281 47.671875 -78.71875 C 47.285156 -76.539062 46.523438 -72.945312 45.390625 -67.9375 C 44.253906 -62.9375 41.742188 -53.078125 37.859375 -38.359375 Z M 57.796875 -38.359375 "/></g></g></g><g fill="#000000" fill-opacity="0.4"><g transform="translate(264.791478, 147.880293)"><g><path d="M 51.515625 0 L 26.171875 0 L 26.171875 -73.078125 L 3.265625 -73.078125 L 3.265625 -93.796875 L 74.359375 -93.796875 L 74.359375 -73.078125 L 51.515625 -73.078125 Z M 51.515625 0 "/></g></g></g><g fill="#000000" fill-opacity="0.4"><g transform="translate(342.417388, 147.880293)"><g><path d="M 10.140625 0 L 10.140625 -93.796875 L 35.609375 -93.796875 L 35.609375 0 Z M 10.140625 0 "/></g></g></g><g fill="#000000" fill-opacity="0.4"><g transform="translate(388.158946, 147.880293)"><g><path d="M 71.46875 -28.484375 C 71.46875 -22.671875 69.988281 -17.503906 67.03125 -12.984375 C 64.082031 -8.472656 59.828125 -4.96875 54.265625 -2.46875 C 48.710938 0.03125 42.191406 1.28125 34.703125 1.28125 C 28.460938 1.28125 23.222656 0.84375 18.984375 -0.03125 C 14.753906 -0.90625 10.351562 -2.4375 5.78125 -4.625 L 5.78125 -27.203125 C 10.613281 -24.722656 15.632812 -22.785156 20.84375 -21.390625 C 26.0625 -20.003906 30.851562 -19.3125 35.21875 -19.3125 C 38.976562 -19.3125 41.734375 -19.960938 43.484375 -21.265625 C 45.242188 -22.566406 46.125 -24.242188 46.125 -26.296875 C 46.125 -27.585938 45.769531 -28.710938 45.0625 -29.671875 C 44.363281 -30.628906 43.234375 -31.597656 41.671875 -32.578125 C 40.109375 -33.566406 35.945312 -35.582031 29.1875 -38.625 C 23.070312 -41.40625 18.484375 -44.097656 15.421875 -46.703125 C 12.367188 -49.316406 10.101562 -52.3125 8.625 -55.6875 C 7.15625 -59.0625 6.421875 -63.0625 6.421875 -67.6875 C 6.421875 -76.320312 9.5625 -83.054688 15.84375 -87.890625 C 22.132812 -92.722656 30.773438 -95.140625 41.765625 -95.140625 C 51.472656 -95.140625 61.375 -92.894531 71.46875 -88.40625 L 63.703125 -68.84375 C 54.929688 -72.863281 47.363281 -74.875 41 -74.875 C 37.707031 -74.875 35.3125 -74.296875 33.8125 -73.140625 C 32.3125 -71.984375 31.5625 -70.550781 31.5625 -68.84375 C 31.5625 -67 32.515625 -65.347656 34.421875 -63.890625 C 36.328125 -62.441406 41.488281 -59.789062 49.90625 -55.9375 C 57.988281 -52.300781 63.601562 -48.398438 66.75 -44.234375 C 69.894531 -40.066406 71.46875 -34.816406 71.46875 -28.484375 Z M 71.46875 -28.484375 "/></g></g></g><g fill="#000000" fill-opacity="0.4"><g transform="translate(463.988554, 147.880293)"><g><path d="M 51.515625 0 L 26.171875 0 L 26.171875 -73.078125 L 3.265625 -73.078125 L 3.265625 -93.796875 L 74.359375 -93.796875 L 74.359375 -73.078125 L 51.515625 -73.078125 Z M 51.515625 0 "/></g></g></g><g fill="#000000" fill-opacity="0.4"><g transform="translate(541.614442, 147.880293)"><g><path d="M 10.140625 0 L 10.140625 -93.796875 L 35.609375 -93.796875 L 35.609375 0 Z M 10.140625 0 "/></g></g></g><g fill="#000000" fill-opacity="0.4"><g transform="translate(587.356, 147.880293)"><g><path d="M 51.90625 -74.359375 C 45.875 -74.359375 41.164062 -71.882812 37.78125 -66.9375 C 34.40625 -62 32.71875 -55.191406 32.71875 -46.515625 C 32.71875 -28.460938 39.582031 -19.4375 53.3125 -19.4375 C 57.457031 -19.4375 61.476562 -20.015625 65.375 -21.171875 C 69.269531 -22.328125 73.179688 -23.71875 77.109375 -25.34375 L 77.109375 -3.90625 C 69.285156 -0.445312 60.429688 1.28125 50.546875 1.28125 C 36.390625 1.28125 25.535156 -2.820312 17.984375 -11.03125 C 10.441406 -19.25 6.671875 -31.117188 6.671875 -46.640625 C 6.671875 -56.347656 8.5 -64.878906 12.15625 -72.234375 C 15.8125 -79.597656 21.070312 -85.253906 27.9375 -89.203125 C 34.800781 -93.160156 42.875 -95.140625 52.15625 -95.140625 C 62.289062 -95.140625 71.976562 -92.9375 81.21875 -88.53125 L 73.453125 -68.578125 C 69.992188 -70.203125 66.53125 -71.570312 63.0625 -72.6875 C 59.601562 -73.800781 55.882812 -74.359375 51.90625 -74.359375 Z M 51.90625 -74.359375 "/></g></g></g><g fill="#000000" fill-opacity="0.4"><g transform="translate(672.616198, 147.880293)"><g><path d="M 71.46875 -28.484375 C 71.46875 -22.671875 69.988281 -17.503906 67.03125 -12.984375 C 64.082031 -8.472656 59.828125 -4.96875 54.265625 -2.46875 C 48.710938 0.03125 42.191406 1.28125 34.703125 1.28125 C 28.460938 1.28125 23.222656 0.84375 18.984375 -0.03125 C 14.753906 -0.90625 10.351562 -2.4375 5.78125 -4.625 L 5.78125 -27.203125 C 10.613281 -24.722656 15.632812 -22.785156 20.84375 -21.390625 C 26.0625 -20.003906 30.851562 -19.3125 35.21875 -19.3125 C 38.976562 -19.3125 41.734375 -19.960938 43.484375 -21.265625 C 45.242188 -22.566406 46.125 -24.242188 46.125 -26.296875 C 46.125 -27.585938 45.769531 -28.710938 45.0625 -29.671875 C 44.363281 -30.628906 43.234375 -31.597656 41.671875 -32.578125 C 40.109375 -33.566406 35.945312 -35.582031 29.1875 -38.625 C 23.070312 -41.40625 18.484375 -44.097656 15.421875 -46.703125 C 12.367188 -49.316406 10.101562 -52.3125 8.625 -55.6875 C 7.15625 -59.0625 6.421875 -63.0625 6.421875 -67.6875 C 6.421875 -76.320312 9.5625 -83.054688 15.84375 -87.890625 C 22.132812 -92.722656 30.773438 -95.140625 41.765625 -95.140625 C 51.472656 -95.140625 61.375 -92.894531 71.46875 -88.40625 L 63.703125 -68.84375 C 54.929688 -72.863281 47.363281 -74.875 41 -74.875 C 37.707031 -74.875 35.3125 -74.296875 33.8125 -73.140625 C 32.3125 -71.984375 31.5625 -70.550781 31.5625 -68.84375 C 31.5625 -67 32.515625 -65.347656 34.421875 -63.890625 C 36.328125 -62.441406 41.488281 -59.789062 49.90625 -55.9375 C 57.988281 -52.300781 63.601562 -48.398438 66.75 -44.234375 C 69.894531 -40.066406 71.46875 -34.816406 71.46875 -28.484375 Z M 71.46875 -28.484375 "/></g></g></g><g fill="#e4e4e4" fill-opacity="1"><g transform="translate(8.738896, 140.679669)"><g><path d="M 71.46875 -28.484375 C 71.46875 -22.671875 69.988281 -17.503906 67.03125 -12.984375 C 64.082031 -8.472656 59.828125 -4.96875 54.265625 -2.46875 C 48.710938 0.03125 42.191406 1.28125 34.703125 1.28125 C 28.460938 1.28125 23.222656 0.84375 18.984375 -0.03125 C 14.753906 -0.90625 10.351562 -2.4375 5.78125 -4.625 L 5.78125 -27.203125 C 10.613281 -24.722656 15.632812 -22.785156 20.84375 -21.390625 C 26.0625 -20.003906 30.851562 -19.3125 35.21875 -19.3125 C 38.976562 -19.3125 41.734375 -19.960938 43.484375 -21.265625 C 45.242188 -22.566406 46.125 -24.242188 46.125 -26.296875 C 46.125 -27.585938 45.769531 -28.710938 45.0625 -29.671875 C 44.363281 -30.628906 43.234375 -31.597656 41.671875 -32.578125 C 40.109375 -33.566406 35.945312 -35.582031 29.1875 -38.625 C 23.070312 -41.40625 18.484375 -44.097656 15.421875 -46.703125 C 12.367188 -49.316406 10.101562 -52.3125 8.625 -55.6875 C 7.15625 -59.0625 6.421875 -63.0625 6.421875 -67.6875 C 6.421875 -76.320312 9.5625 -83.054688 15.84375 -87.890625 C 22.132812 -92.722656 30.773438 -95.140625 41.765625 -95.140625 C 51.472656 -95.140625 61.375 -92.894531 71.46875 -88.40625 L 63.703125 -68.84375 C 54.929688 -72.863281 47.363281 -74.875 41 -74.875 C 37.707031 -74.875 35.3125 -74.296875 33.8125 -73.140625 C 32.3125 -71.984375 31.5625 -70.550781 31.5625 -68.84375 C 31.5625 -67 32.515625 -65.347656 34.421875 -63.890625 C 36.328125 -62.441406 41.488281 -59.789062 49.90625 -55.9375 C 57.988281 -52.300781 63.601562 -48.398438 66.75 -44.234375 C 69.894531 -40.066406 71.46875 -34.816406 71.46875 -28.484375 Z M 71.46875 -28.484375 "/></g></g></g><g fill="#e4e4e4" fill-opacity="1"><g transform="translate(84.568493, 140.679669)"><g><path d="M 51.515625 0 L 26.171875 0 L 26.171875 -73.078125 L 3.265625 -73.078125 L 3.265625 -93.796875 L 74.359375 -93.796875 L 74.359375 -73.078125 L 51.515625 -73.078125 Z M 51.515625 0 "/></g></g></g><g fill="#e4e4e4" fill-opacity="1"><g transform="translate(162.194392, 140.679669)"><g><path d="M 67.6875 0 L 63.0625 -17.578125 L 32.59375 -17.578125 L 27.84375 0 L 0 0 L 30.609375 -94.1875 L 64.40625 -94.1875 L 95.40625 0 Z M 57.796875 -38.359375 L 53.765625 -53.765625 C 52.816406 -57.179688 51.671875 -61.601562 50.328125 -67.03125 C 48.984375 -72.46875 48.097656 -76.363281 47.671875 -78.71875 C 47.285156 -76.539062 46.523438 -72.945312 45.390625 -67.9375 C 44.253906 -62.9375 41.742188 -53.078125 37.859375 -38.359375 Z M 57.796875 -38.359375 "/></g></g></g><g fill="#e4e4e4" fill-opacity="1"><g transform="translate(257.590854, 140.679669)"><g><path d="M 51.515625 0 L 26.171875 0 L 26.171875 -73.078125 L 3.265625 -73.078125 L 3.265625 -93.796875 L 74.359375 -93.796875 L 74.359375 -73.078125 L 51.515625 -73.078125 Z M 51.515625 0 "/></g></g></g><g fill="#e4e4e4" fill-opacity="1"><g transform="translate(335.216763, 140.679669)"><g><path d="M 10.140625 0 L 10.140625 -93.796875 L 35.609375 -93.796875 L 35.609375 0 Z M 10.140625 0 "/></g></g></g><g fill="#e4e4e4" fill-opacity="1"><g transform="translate(380.958322, 140.679669)"><g><path d="M 71.46875 -28.484375 C 71.46875 -22.671875 69.988281 -17.503906 67.03125 -12.984375 C 64.082031 -8.472656 59.828125 -4.96875 54.265625 -2.46875 C 48.710938 0.03125 42.191406 1.28125 34.703125 1.28125 C 28.460938 1.28125 23.222656 0.84375 18.984375 -0.03125 C 14.753906 -0.90625 10.351562 -2.4375 5.78125 -4.625 L 5.78125 -27.203125 C 10.613281 -24.722656 15.632812 -22.785156 20.84375 -21.390625 C 26.0625 -20.003906 30.851562 -19.3125 35.21875 -19.3125 C 38.976562 -19.3125 41.734375 -19.960938 43.484375 -21.265625 C 45.242188 -22.566406 46.125 -24.242188 46.125 -26.296875 C 46.125 -27.585938 45.769531 -28.710938 45.0625 -29.671875 C 44.363281 -30.628906 43.234375 -31.597656 41.671875 -32.578125 C 40.109375 -33.566406 35.945312 -35.582031 29.1875 -38.625 C 23.070312 -41.40625 18.484375 -44.097656 15.421875 -46.703125 C 12.367188 -49.316406 10.101562 -52.3125 8.625 -55.6875 C 7.15625 -59.0625 6.421875 -63.0625 6.421875 -67.6875 C 6.421875 -76.320312 9.5625 -83.054688 15.84375 -87.890625 C 22.132812 -92.722656 30.773438 -95.140625 41.765625 -95.140625 C 51.472656 -95.140625 61.375 -92.894531 71.46875 -88.40625 L 63.703125 -68.84375 C 54.929688 -72.863281 47.363281 -74.875 41 -74.875 C 37.707031 -74.875 35.3125 -74.296875 33.8125 -73.140625 C 32.3125 -71.984375 31.5625 -70.550781 31.5625 -68.84375 C 31.5625 -67 32.515625 -65.347656 34.421875 -63.890625 C 36.328125 -62.441406 41.488281 -59.789062 49.90625 -55.9375 C 57.988281 -52.300781 63.601562 -48.398438 66.75 -44.234375 C 69.894531 -40.066406 71.46875 -34.816406 71.46875 -28.484375 Z M 71.46875 -28.484375 "/></g></g></g><g fill="#e4e4e4" fill-opacity="1"><g transform="translate(456.787929, 140.679669)"><g><path d="M 51.515625 0 L 26.171875 0 L 26.171875 -73.078125 L 3.265625 -73.078125 L 3.265625 -93.796875 L 74.359375 -93.796875 L 74.359375 -73.078125 L 51.515625 -73.078125 Z M 51.515625 0 "/></g></g></g><g fill="#e4e4e4" fill-opacity="1"><g transform="translate(534.413817, 140.679669)"><g><path d="M 10.140625 0 L 10.140625 -93.796875 L 35.609375 -93.796875 L 35.609375 0 Z M 10.140625 0 "/></g></g></g><g fill="#e4e4e4" fill-opacity="1"><g transform="translate(580.155375, 140.679669)"><g><path d="M 51.90625 -74.359375 C 45.875 -74.359375 41.164062 -71.882812 37.78125 -66.9375 C 34.40625 -62 32.71875 -55.191406 32.71875 -46.515625 C 32.71875 -28.460938 39.582031 -19.4375 53.3125 -19.4375 C 57.457031 -19.4375 61.476562 -20.015625 65.375 -21.171875 C 69.269531 -22.328125 73.179688 -23.71875 77.109375 -25.34375 L 77.109375 -3.90625 C 69.285156 -0.445312 60.429688 1.28125 50.546875 1.28125 C 36.390625 1.28125 25.535156 -2.820312 17.984375 -11.03125 C 10.441406 -19.25 6.671875 -31.117188 6.671875 -46.640625 C 6.671875 -56.347656 8.5 -64.878906 12.15625 -72.234375 C 15.8125 -79.597656 21.070312 -85.253906 27.9375 -89.203125 C 34.800781 -93.160156 42.875 -95.140625 52.15625 -95.140625 C 62.289062 -95.140625 71.976562 -92.9375 81.21875 -88.53125 L 73.453125 -68.578125 C 69.992188 -70.203125 66.53125 -71.570312 63.0625 -72.6875 C 59.601562 -73.800781 55.882812 -74.359375 51.90625 -74.359375 Z M 51.90625 -74.359375 "/></g></g></g><g fill="#e4e4e4" fill-opacity="1"><g transform="translate(665.415573, 140.679669)"><g><path d="M 71.46875 -28.484375 C 71.46875 -22.671875 69.988281 -17.503906 67.03125 -12.984375 C 64.082031 -8.472656 59.828125 -4.96875 54.265625 -2.46875 C 48.710938 0.03125 42.191406 1.28125 34.703125 1.28125 C 28.460938 1.28125 23.222656 0.84375 18.984375 -0.03125 C 14.753906 -0.90625 10.351562 -2.4375 5.78125 -4.625 L 5.78125 -27.203125 C 10.613281 -24.722656 15.632812 -22.785156 20.84375 -21.390625 C 26.0625 -20.003906 30.851562 -19.3125 35.21875 -19.3125 C 38.976562 -19.3125 41.734375 -19.960938 43.484375 -21.265625 C 45.242188 -22.566406 46.125 -24.242188 46.125 -26.296875 C 46.125 -27.585938 45.769531 -28.710938 45.0625 -29.671875 C 44.363281 -30.628906 43.234375 -31.597656 41.671875 -32.578125 C 40.109375 -33.566406 35.945312 -35.582031 29.1875 -38.625 C 23.070312 -41.40625 18.484375 -44.097656 15.421875 -46.703125 C 12.367188 -49.316406 10.101562 -52.3125 8.625 -55.6875 C 7.15625 -59.0625 6.421875 -63.0625 6.421875 -67.6875 C 6.421875 -76.320312 9.5625 -83.054688 15.84375 -87.890625 C 22.132812 -92.722656 30.773438 -95.140625 41.765625 -95.140625 C 51.472656 -95.140625 61.375 -92.894531 71.46875 -88.40625 L 63.703125 -68.84375 C 54.929688 -72.863281 47.363281 -74.875 41 -74.875 C 37.707031 -74.875 35.3125 -74.296875 33.8125 -73.140625 C 32.3125 -71.984375 31.5625 -70.550781 31.5625 -68.84375 C 31.5625 -67 32.515625 -65.347656 34.421875 -63.890625 C 36.328125 -62.441406 41.488281 -59.789062 49.90625 -55.9375 C 57.988281 -52.300781 63.601562 -48.398438 66.75 -44.234375 C 69.894531 -40.066406 71.46875 -34.816406 71.46875 -28.484375 Z M 71.46875 -28.484375 "/></g></g></g></svg>