<svg xmlns="http://www.w3.org/2000/svg" xmlns:xlink="http://www.w3.org/1999/xlink" width="1000" zoomAndPan="magnify" viewBox="0 0 750 187.499995" height="250" preserveAspectRatio="xMidYMid meet" version="1.0"><defs><g/></defs><g fill="#535d65" fill-opacity="0.302"><g transform="translate(13.517626, 173.707892)"><g><path d="M 107.234375 -145.875 L 107.234375 -118.125 L 71.75 -118.125 L 71.75 0 L 43.015625 0 L 43.015625 -118.125 L 8.921875 -118.125 L 8.921875 -145.875 Z M 107.234375 -145.875 "/></g></g></g><g fill="#535d65" fill-opacity="0.302"><g transform="translate(129.657211, 173.707892)"><g><path d="M 9.90625 -72.734375 C 9.90625 -85.953125 13.238281 -98.304688 19.90625 -109.796875 C 26.582031 -121.296875 35.632812 -130.445312 47.0625 -137.25 C 58.5 -144.0625 70.890625 -147.46875 84.234375 -147.46875 C 97.578125 -147.46875 109.960938 -144.0625 121.390625 -137.25 C 132.828125 -130.445312 141.945312 -121.296875 148.75 -109.796875 C 155.550781 -98.304688 158.953125 -85.953125 158.953125 -72.734375 C 158.953125 -59.265625 155.550781 -46.847656 148.75 -35.484375 C 141.945312 -24.117188 132.828125 -15.097656 121.390625 -8.421875 C 109.960938 -1.753906 97.578125 1.578125 84.234375 1.578125 C 70.753906 1.578125 58.332031 -1.753906 46.96875 -8.421875 C 35.601562 -15.097656 26.582031 -24.117188 19.90625 -35.484375 C 13.238281 -46.847656 9.90625 -59.265625 9.90625 -72.734375 Z M 39.640625 -72.734375 C 39.640625 -64.285156 41.65625 -56.492188 45.6875 -49.359375 C 49.71875 -42.222656 55.203125 -36.570312 62.140625 -32.40625 C 69.078125 -28.238281 76.773438 -26.15625 85.234375 -26.15625 C 93.421875 -26.15625 100.882812 -28.238281 107.625 -32.40625 C 114.363281 -36.570312 119.648438 -42.1875 123.484375 -49.25 C 127.316406 -56.320312 129.234375 -64.148438 129.234375 -72.734375 C 129.234375 -81.460938 127.25 -89.394531 123.28125 -96.53125 C 119.320312 -103.664062 113.9375 -109.3125 107.125 -113.46875 C 100.320312 -117.632812 92.757812 -119.71875 84.4375 -119.71875 C 76.113281 -119.71875 68.546875 -117.632812 61.734375 -113.46875 C 54.929688 -109.3125 49.546875 -103.664062 45.578125 -96.53125 C 41.617188 -89.394531 39.640625 -81.460938 39.640625 -72.734375 Z M 39.640625 -72.734375 "/></g></g></g><g fill="#535d65" fill-opacity="0.302"><g transform="translate(298.51545, 173.707892)"><g><path d="M 150.234375 -145.875 L 150.234375 5.953125 L 149.4375 5.953125 L 47.375 -86.21875 L 47.96875 0 L 18.828125 0 L 18.828125 -151.625 L 20.015625 -151.625 L 121.890625 -58.078125 L 121.296875 -145.875 Z M 150.234375 -145.875 "/></g></g></g><g fill="#535d65" fill-opacity="0.302"><g transform="translate(467.571867, 173.707892)"><g><path d="M 118.328125 -145.875 L 118.328125 -118.125 L 47.5625 -118.125 L 47.5625 -87.015625 L 110.203125 -87.015625 L 110.203125 -59.265625 L 47.5625 -59.265625 L 47.5625 -27.75 L 121.109375 -27.75 L 121.109375 0 L 18.828125 0 L 18.828125 -145.875 Z M 118.328125 -145.875 "/></g></g></g><g fill="#535d65" fill-opacity="0.302"><g transform="translate(599.566718, 173.707892)"><g><path d="M 18.828125 -145.875 L 62.4375 -145.875 C 81.0625 -145.875 96.382812 -142.269531 108.40625 -135.0625 C 120.4375 -127.863281 129.191406 -118.550781 134.671875 -107.125 C 140.160156 -95.695312 142.90625 -83.441406 142.90625 -70.359375 C 142.90625 -56.359375 139.597656 -44.003906 132.984375 -33.296875 C 126.378906 -22.597656 117.492188 -14.375 106.328125 -8.625 C 95.171875 -2.875 82.914062 0 69.5625 0 L 18.828125 0 Z M 64.609375 -27.75 C 79.546875 -27.75 91.375 -31.578125 100.09375 -39.234375 C 108.8125 -46.898438 113.171875 -57.9375 113.171875 -72.34375 C 113.171875 -83.96875 110.757812 -93.21875 105.9375 -100.09375 C 101.113281 -106.96875 95.5 -111.722656 89.09375 -114.359375 C 82.6875 -117.003906 76.640625 -118.328125 70.953125 -118.328125 L 47.5625 -118.328125 L 47.5625 -27.75 Z M 64.609375 -27.75 "/></g></g></g><g fill="#535d65" fill-opacity="0.502"><g transform="translate(6.987629, 168.787185)"><g><path d="M 107.234375 -145.875 L 107.234375 -118.125 L 71.75 -118.125 L 71.75 0 L 43.015625 0 L 43.015625 -118.125 L 8.921875 -118.125 L 8.921875 -145.875 Z M 107.234375 -145.875 "/></g></g></g><g fill="#535d65" fill-opacity="0.502"><g transform="translate(123.127214, 168.787185)"><g><path d="M 9.90625 -72.734375 C 9.90625 -85.953125 13.238281 -98.304688 19.90625 -109.796875 C 26.582031 -121.296875 35.632812 -130.445312 47.0625 -137.25 C 58.5 -144.0625 70.890625 -147.46875 84.234375 -147.46875 C 97.578125 -147.46875 109.960938 -144.0625 121.390625 -137.25 C 132.828125 -130.445312 141.945312 -121.296875 148.75 -109.796875 C 155.550781 -98.304688 158.953125 -85.953125 158.953125 -72.734375 C 158.953125 -59.265625 155.550781 -46.847656 148.75 -35.484375 C 141.945312 -24.117188 132.828125 -15.097656 121.390625 -8.421875 C 109.960938 -1.753906 97.578125 1.578125 84.234375 1.578125 C 70.753906 1.578125 58.332031 -1.753906 46.96875 -8.421875 C 35.601562 -15.097656 26.582031 -24.117188 19.90625 -35.484375 C 13.238281 -46.847656 9.90625 -59.265625 9.90625 -72.734375 Z M 39.640625 -72.734375 C 39.640625 -64.285156 41.65625 -56.492188 45.6875 -49.359375 C 49.71875 -42.222656 55.203125 -36.570312 62.140625 -32.40625 C 69.078125 -28.238281 76.773438 -26.15625 85.234375 -26.15625 C 93.421875 -26.15625 100.882812 -28.238281 107.625 -32.40625 C 114.363281 -36.570312 119.648438 -42.1875 123.484375 -49.25 C 127.316406 -56.320312 129.234375 -64.148438 129.234375 -72.734375 C 129.234375 -81.460938 127.25 -89.394531 123.28125 -96.53125 C 119.320312 -103.664062 113.9375 -109.3125 107.125 -113.46875 C 100.320312 -117.632812 92.757812 -119.71875 84.4375 -119.71875 C 76.113281 -119.71875 68.546875 -117.632812 61.734375 -113.46875 C 54.929688 -109.3125 49.546875 -103.664062 45.578125 -96.53125 C 41.617188 -89.394531 39.640625 -81.460938 39.640625 -72.734375 Z M 39.640625 -72.734375 "/></g></g></g><g fill="#535d65" fill-opacity="0.502"><g transform="translate(291.985453, 168.787185)"><g><path d="M 150.234375 -145.875 L 150.234375 5.953125 L 149.4375 5.953125 L 47.375 -86.21875 L 47.96875 0 L 18.828125 0 L 18.828125 -151.625 L 20.015625 -151.625 L 121.890625 -58.078125 L 121.296875 -145.875 Z M 150.234375 -145.875 "/></g></g></g><g fill="#535d65" fill-opacity="0.502"><g transform="translate(461.04187, 168.787185)"><g><path d="M 118.328125 -145.875 L 118.328125 -118.125 L 47.5625 -118.125 L 47.5625 -87.015625 L 110.203125 -87.015625 L 110.203125 -59.265625 L 47.5625 -59.265625 L 47.5625 -27.75 L 121.109375 -27.75 L 121.109375 0 L 18.828125 0 L 18.828125 -145.875 Z M 118.328125 -145.875 "/></g></g></g><g fill="#535d65" fill-opacity="0.502"><g transform="translate(593.036722, 168.787185)"><g><path d="M 18.828125 -145.875 L 62.4375 -145.875 C 81.0625 -145.875 96.382812 -142.269531 108.40625 -135.0625 C 120.4375 -127.863281 129.191406 -118.550781 134.671875 -107.125 C 140.160156 -95.695312 142.90625 -83.441406 142.90625 -70.359375 C 142.90625 -56.359375 139.597656 -44.003906 132.984375 -33.296875 C 126.378906 -22.597656 117.492188 -14.375 106.328125 -8.625 C 95.171875 -2.875 82.914062 0 69.5625 0 L 18.828125 0 Z M 64.609375 -27.75 C 79.546875 -27.75 91.375 -31.578125 100.09375 -39.234375 C 108.8125 -46.898438 113.171875 -57.9375 113.171875 -72.34375 C 113.171875 -83.96875 110.757812 -93.21875 105.9375 -100.09375 C 101.113281 -106.96875 95.5 -111.722656 89.09375 -114.359375 C 82.6875 -117.003906 76.640625 -118.328125 70.953125 -118.328125 L 47.5625 -118.328125 L 47.5625 -27.75 Z M 64.609375 -27.75 "/></g></g></g><g fill="#9effc5" fill-opacity="1"><g transform="translate(0.457633, 163.86648)"><g><path d="M 107.234375 -145.875 L 107.234375 -118.125 L 71.75 -118.125 L 71.75 0 L 43.015625 0 L 43.015625 -118.125 L 8.921875 -118.125 L 8.921875 -145.875 Z M 107.234375 -145.875 "/></g></g></g><g fill="#9effc5" fill-opacity="1"><g transform="translate(116.597217, 163.86648)"><g><path d="M 9.90625 -72.734375 C 9.90625 -85.953125 13.238281 -98.304688 19.90625 -109.796875 C 26.582031 -121.296875 35.632812 -130.445312 47.0625 -137.25 C 58.5 -144.0625 70.890625 -147.46875 84.234375 -147.46875 C 97.578125 -147.46875 109.960938 -144.0625 121.390625 -137.25 C 132.828125 -130.445312 141.945312 -121.296875 148.75 -109.796875 C 155.550781 -98.304688 158.953125 -85.953125 158.953125 -72.734375 C 158.953125 -59.265625 155.550781 -46.847656 148.75 -35.484375 C 141.945312 -24.117188 132.828125 -15.097656 121.390625 -8.421875 C 109.960938 -1.753906 97.578125 1.578125 84.234375 1.578125 C 70.753906 1.578125 58.332031 -1.753906 46.96875 -8.421875 C 35.601562 -15.097656 26.582031 -24.117188 19.90625 -35.484375 C 13.238281 -46.847656 9.90625 -59.265625 9.90625 -72.734375 Z M 39.640625 -72.734375 C 39.640625 -64.285156 41.65625 -56.492188 45.6875 -49.359375 C 49.71875 -42.222656 55.203125 -36.570312 62.140625 -32.40625 C 69.078125 -28.238281 76.773438 -26.15625 85.234375 -26.15625 C 93.421875 -26.15625 100.882812 -28.238281 107.625 -32.40625 C 114.363281 -36.570312 119.648438 -42.1875 123.484375 -49.25 C 127.316406 -56.320312 129.234375 -64.148438 129.234375 -72.734375 C 129.234375 -81.460938 127.25 -89.394531 123.28125 -96.53125 C 119.320312 -103.664062 113.9375 -109.3125 107.125 -113.46875 C 100.320312 -117.632812 92.757812 -119.71875 84.4375 -119.71875 C 76.113281 -119.71875 68.546875 -117.632812 61.734375 -113.46875 C 54.929688 -109.3125 49.546875 -103.664062 45.578125 -96.53125 C 41.617188 -89.394531 39.640625 -81.460938 39.640625 -72.734375 Z M 39.640625 -72.734375 "/></g></g></g><g fill="#9effc5" fill-opacity="1"><g transform="translate(285.455456, 163.86648)"><g><path d="M 150.234375 -145.875 L 150.234375 5.953125 L 149.4375 5.953125 L 47.375 -86.21875 L 47.96875 0 L 18.828125 0 L 18.828125 -151.625 L 20.015625 -151.625 L 121.890625 -58.078125 L 121.296875 -145.875 Z M 150.234375 -145.875 "/></g></g></g><g fill="#9effc5" fill-opacity="1"><g transform="translate(454.511874, 163.86648)"><g><path d="M 118.328125 -145.875 L 118.328125 -118.125 L 47.5625 -118.125 L 47.5625 -87.015625 L 110.203125 -87.015625 L 110.203125 -59.265625 L 47.5625 -59.265625 L 47.5625 -27.75 L 121.109375 -27.75 L 121.109375 0 L 18.828125 0 L 18.828125 -145.875 Z M 118.328125 -145.875 "/></g></g></g><g fill="#9effc5" fill-opacity="1"><g transform="translate(586.506725, 163.86648)"><g><path d="M 18.828125 -145.875 L 62.4375 -145.875 C 81.0625 -145.875 96.382812 -142.269531 108.40625 -135.0625 C 120.4375 -127.863281 129.191406 -118.550781 134.671875 -107.125 C 140.160156 -95.695312 142.90625 -83.441406 142.90625 -70.359375 C 142.90625 -56.359375 139.597656 -44.003906 132.984375 -33.296875 C 126.378906 -22.597656 117.492188 -14.375 106.328125 -8.625 C 95.171875 -2.875 82.914062 0 69.5625 0 L 18.828125 0 Z M 64.609375 -27.75 C 79.546875 -27.75 91.375 -31.578125 100.09375 -39.234375 C 108.8125 -46.898438 113.171875 -57.9375 113.171875 -72.34375 C 113.171875 -83.96875 110.757812 -93.21875 105.9375 -100.09375 C 101.113281 -106.96875 95.5 -111.722656 89.09375 -114.359375 C 82.6875 -117.003906 76.640625 -118.328125 70.953125 -118.328125 L 47.5625 -118.328125 L 47.5625 -27.75 Z M 64.609375 -27.75 "/></g></g></g></svg>