<svg xmlns="http://www.w3.org/2000/svg" xmlns:xlink="http://www.w3.org/1999/xlink" width="500" zoomAndPan="magnify" viewBox="0 0 375 374.999991" height="500" preserveAspectRatio="xMidYMid meet" version="1.0"><defs><clipPath id="id1"><path d="M 8.296875 8.296875 L 366.796875 8.296875 L 366.796875 366.796875 L 8.296875 366.796875 Z M 8.296875 8.296875 " clip-rule="nonzero"/></clipPath><clipPath id="id2"><path d="M 55 79 L 315 79 L 315 359.808594 L 55 359.808594 Z M 55 79 " clip-rule="nonzero"/></clipPath><clipPath id="id3"><path d="M 30.578125 150 L 51 150 L 51 196 L 30.578125 196 Z M 30.578125 150 " clip-rule="nonzero"/></clipPath></defs><path fill="#9effc5" d="M 187.5 0 C 83.945312 0 0 83.945312 0 187.5 C 0 291.054688 83.945312 375 187.5 375 C 291.054688 375 375 291.054688 375 187.5 C 375 83.945312 291.054688 0 187.5 0 " fill-opacity="1" fill-rule="nonzero"/><g clip-path="url(#id1)"><path fill="#535d65" d="M 187.546875 8.296875 C 88.546875 8.296875 8.296875 88.546875 8.296875 187.546875 C 8.296875 286.542969 88.546875 366.796875 187.546875 366.796875 C 286.542969 366.796875 366.796875 286.542969 366.796875 187.546875 C 366.796875 88.546875 286.542969 8.296875 187.546875 8.296875 " fill-opacity="1" fill-rule="nonzero"/></g><g clip-path="url(#id2)"><path fill="#000000" d="M 136.6875 359.835938 L 136.6875 228.855469 C 129.101562 237.546875 122.003906 244.816406 115.261719 250.792969 C 108.484375 256.675781 103.292969 261.585938 96.320312 264.394531 C 89.09375 267.207031 79.027344 269.890625 72.960938 267.335938 C 66.894531 264.558594 63.023438 259.386719 60.34375 248.339844 C 57.699219 237.09375 57.183594 215.125 56.925781 201.101562 C 56.503906 186.984375 53.796875 172.023438 58.375 165.078125 C 62.988281 158.164062 79.089844 156.871094 84.15625 160.199219 C 89.0625 163.558594 87.125 174.578125 88.0625 185.042969 C 88.902344 195.542969 89.382812 207.789062 89.511719 222.523438 C 94.835938 217.03125 100.386719 211.632812 106.519531 205.980469 C 112.648438 200.292969 117.972656 192.378906 125.972656 188.953125 C 133.878906 185.527344 143.816406 184.429688 153.691406 185.527344 C 163.53125 186.628906 174.148438 195.058594 184.3125 195.253906 C 194.378906 195.222656 204.574219 188.824219 213.511719 186.011719 C 222.226562 183.234375 227.550781 189.695312 236.84375 178.710938 C 246.167969 167.53125 260.011719 135.933594 268.914062 119.8125 C 277.625 103.5625 281.984375 88.148438 289.339844 82.300781 C 296.664062 76.582031 309.507812 79.847656 312.699219 85.242188 C 315.703125 90.476562 316.605469 95.0625 307.828125 113.964844 C 298.890625 132.996094 272.171875 179.261719 260.167969 198.195312 C 248.132812 216.871094 240.359375 226.078125 236.355469 225.949219 L 236.355469 359.832031 C 203.15625 359.835938 169.921875 359.835938 136.691406 359.835938 Z M 136.6875 359.835938 " fill-opacity="1" fill-rule="evenodd"/></g><path fill="#000000" d="M 190.160156 96.84375 C 211.621094 96.84375 229.039062 114.300781 229.039062 135.808594 C 229.039062 157.316406 211.621094 174.773438 190.160156 174.773438 C 168.699219 174.773438 151.277344 157.316406 151.277344 135.808594 C 151.277344 114.300781 168.699219 96.84375 190.160156 96.84375 " fill-opacity="1" fill-rule="evenodd"/><path fill="#000000" d="M 36.011719 170.441406 L 99.707031 170.441406 L 99.707031 177.257812 L 36.011719 177.257812 Z M 36.011719 170.441406 " fill-opacity="1" fill-rule="evenodd"/><path fill="#000000" d="M 102.324219 150.957031 C 97.933594 150.957031 94.351562 154.511719 94.351562 158.90625 L 94.351562 187.789062 C 94.351562 192.183594 97.933594 195.769531 102.324219 195.769531 L 105.871094 195.769531 C 110.261719 195.769531 113.808594 192.183594 113.808594 187.789062 L 113.808594 158.90625 C 113.808594 154.511719 110.261719 150.957031 105.871094 150.957031 Z M 102.324219 150.957031 " fill-opacity="1" fill-rule="evenodd"/><g clip-path="url(#id3)"><path fill="#000000" d="M 38.625 150.957031 C 34.238281 150.957031 30.65625 154.511719 30.65625 158.90625 L 30.65625 187.789062 C 30.65625 192.183594 34.238281 195.769531 38.625 195.769531 L 42.175781 195.769531 C 46.5625 195.769531 50.113281 192.183594 50.113281 187.789062 L 50.113281 158.90625 C 50.113281 154.511719 46.5625 150.957031 42.175781 150.957031 Z M 38.625 150.957031 " fill-opacity="1" fill-rule="evenodd"/></g><path fill="#000000" d="M 266.238281 79.875 L 263.527344 86.144531 L 322.027344 111.378906 L 324.738281 105.109375 Z M 266.238281 79.875 " fill-opacity="1" fill-rule="evenodd"/><path fill="#000000" d="M 334.804688 88.242188 C 330.769531 86.53125 326.089844 88.371094 324.347656 92.410156 C 320.574219 101.265625 316.765625 110.085938 312.957031 118.9375 C 311.21875 122.976562 313.089844 127.660156 317.121094 129.40625 C 318.1875 129.859375 319.285156 130.34375 320.378906 130.792969 C 324.414062 132.539062 329.09375 130.664062 330.804688 126.625 C 334.609375 117.804688 338.417969 108.953125 342.226562 100.132812 C 343.96875 96.09375 342.097656 91.410156 338.0625 89.664062 C 336.996094 89.179688 335.902344 88.726562 334.804688 88.242188 Z M 334.804688 88.242188 " fill-opacity="1" fill-rule="evenodd"/><path fill="#000000" d="M 276.300781 63.042969 C 272.269531 61.296875 267.589844 63.140625 265.847656 67.179688 C 262.074219 76.03125 258.265625 84.851562 254.457031 93.703125 C 252.714844 97.742188 254.585938 102.425781 258.621094 104.171875 C 259.683594 104.625 260.78125 105.109375 261.878906 105.5625 C 265.914062 107.304688 270.59375 105.433594 272.300781 101.425781 C 276.109375 92.574219 279.917969 83.71875 283.722656 74.898438 C 285.464844 70.863281 283.59375 66.175781 279.5625 64.433594 C 278.496094 63.980469 277.398438 63.496094 276.300781 63.042969 Z M 276.300781 63.042969 " fill-opacity="1" fill-rule="evenodd"/></svg>