<svg xmlns="http://www.w3.org/2000/svg" xmlns:xlink="http://www.w3.org/1999/xlink" width="1000" zoomAndPan="magnify" viewBox="0 0 750 187.499995" height="250" preserveAspectRatio="xMidYMid meet" version="1.0"><defs><g/></defs><g fill="#000000" fill-opacity="0.4"><g transform="translate(11.492805, 147.217412)"><g><path d="M 115.0625 0 L 84.125 0 L 74.84375 -42.1875 C 74.40625 -43.957031 73.710938 -47.46875 72.765625 -52.71875 C 71.816406 -57.976562 71.117188 -62.375 70.671875 -65.90625 C 70.316406 -63.039062 69.742188 -59.472656 68.953125 -55.203125 C 68.160156 -50.941406 67.375 -47.023438 66.59375 -43.453125 C 65.820312 -39.878906 62.613281 -25.394531 56.96875 0 L 26.03125 0 L 2.046875 -96.84375 L 27.296875 -96.84375 L 37.828125 -48.28125 C 40.210938 -37.550781 41.84375 -29.007812 42.71875 -22.65625 C 43.289062 -27.15625 44.316406 -33.269531 45.796875 -41 C 47.273438 -48.726562 48.65625 -55.128906 49.9375 -60.203125 L 58.484375 -96.84375 L 82.734375 -96.84375 L 91.015625 -60.203125 C 92.421875 -54.335938 93.851562 -47.5625 95.3125 -39.875 C 96.769531 -32.1875 97.742188 -26.445312 98.234375 -22.65625 C 98.804688 -27.550781 100.375 -36.050781 102.9375 -48.15625 L 113.671875 -96.84375 L 138.90625 -96.84375 Z M 115.0625 0 "/></g></g></g><g fill="#000000" fill-opacity="0.4"><g transform="translate(152.4433, 147.217412)"><g><path d="M 67.953125 0 L 10.46875 0 L 10.46875 -96.84375 L 67.953125 -96.84375 L 67.953125 -75.84375 L 36.625 -75.84375 L 36.625 -60.609375 L 65.640625 -60.609375 L 65.640625 -39.609375 L 36.625 -39.609375 L 36.625 -21.328125 L 67.953125 -21.328125 Z M 67.953125 0 "/></g></g></g><g fill="#000000" fill-opacity="0.4"><g transform="translate(226.892716, 147.217412)"><g><path d="M 10.46875 0 L 10.46875 -96.84375 L 36.625 -96.84375 L 36.625 -21.125 L 73.921875 -21.125 L 73.921875 0 Z M 10.46875 0 "/></g></g></g><g fill="#000000" fill-opacity="0.4"><g transform="translate(305.846189, 147.217412)"><g><path d="M 53.59375 -76.765625 C 47.363281 -76.765625 42.503906 -74.210938 39.015625 -69.109375 C 35.523438 -64.015625 33.78125 -56.984375 33.78125 -48.015625 C 33.78125 -29.378906 40.867188 -20.0625 55.046875 -20.0625 C 59.328125 -20.0625 63.476562 -20.65625 67.5 -21.84375 C 71.519531 -23.039062 75.5625 -24.484375 79.625 -26.171875 L 79.625 -4.046875 C 71.539062 -0.460938 62.398438 1.328125 52.203125 1.328125 C 37.578125 1.328125 26.367188 -2.910156 18.578125 -11.390625 C 10.785156 -19.867188 6.890625 -32.125 6.890625 -48.15625 C 6.890625 -58.175781 8.773438 -66.984375 12.546875 -74.578125 C 16.328125 -82.179688 21.757812 -88.023438 28.84375 -92.109375 C 35.9375 -96.191406 44.273438 -98.234375 53.859375 -98.234375 C 64.316406 -98.234375 74.316406 -95.957031 83.859375 -91.40625 L 75.84375 -70.8125 C 72.269531 -72.488281 68.691406 -73.898438 65.109375 -75.046875 C 61.535156 -76.191406 57.695312 -76.765625 53.59375 -76.765625 Z M 53.59375 -76.765625 "/></g></g></g><g fill="#000000" fill-opacity="0.4"><g transform="translate(393.874007, 147.217412)"><g><path d="M 101.078125 -48.546875 C 101.078125 -32.253906 97.078125 -19.867188 89.078125 -11.390625 C 81.085938 -2.910156 69.390625 1.328125 53.984375 1.328125 C 38.796875 1.328125 27.148438 -2.929688 19.046875 -11.453125 C 10.941406 -19.984375 6.890625 -32.394531 6.890625 -48.6875 C 6.890625 -64.800781 10.914062 -77.109375 18.96875 -85.609375 C 27.03125 -94.109375 38.742188 -98.359375 54.109375 -98.359375 C 69.523438 -98.359375 81.207031 -94.140625 89.15625 -85.703125 C 97.101562 -77.273438 101.078125 -64.890625 101.078125 -48.546875 Z M 34.4375 -48.546875 C 34.4375 -29.828125 40.953125 -20.46875 53.984375 -20.46875 C 60.609375 -20.46875 65.519531 -22.738281 68.71875 -27.28125 C 71.925781 -31.832031 73.53125 -38.921875 73.53125 -48.546875 C 73.53125 -58.222656 71.90625 -65.367188 68.65625 -69.984375 C 65.40625 -74.597656 60.554688 -76.90625 54.109375 -76.90625 C 40.992188 -76.90625 34.4375 -67.453125 34.4375 -48.546875 Z M 34.4375 -48.546875 "/></g></g></g><g fill="#000000" fill-opacity="0.4"><g transform="translate(501.971379, 147.217412)"><g><path d="M 52.65625 0 L 32.859375 -69.75 L 32.265625 -69.75 C 33.191406 -57.875 33.65625 -48.644531 33.65625 -42.0625 L 33.65625 0 L 10.46875 0 L 10.46875 -96.84375 L 45.3125 -96.84375 L 65.515625 -28.078125 L 66.046875 -28.078125 L 85.84375 -96.84375 L 120.75 -96.84375 L 120.75 0 L 96.703125 0 L 96.703125 -42.453125 C 96.703125 -44.660156 96.734375 -47.113281 96.796875 -49.8125 C 96.867188 -52.507812 97.171875 -59.109375 97.703125 -69.609375 L 97.109375 -69.609375 L 77.5625 0 Z M 52.65625 0 "/></g></g></g><g fill="#000000" fill-opacity="0.4"><g transform="translate(633.118907, 147.217412)"><g><path d="M 67.953125 0 L 10.46875 0 L 10.46875 -96.84375 L 67.953125 -96.84375 L 67.953125 -75.84375 L 36.625 -75.84375 L 36.625 -60.609375 L 65.640625 -60.609375 L 65.640625 -39.609375 L 36.625 -39.609375 L 36.625 -21.328125 L 67.953125 -21.328125 Z M 67.953125 0 "/></g></g></g><g fill="#000000" fill-opacity="0.4"><g transform="translate(707.568301, 147.217412)"><g><path d="M 30.671875 -34.171875 L 8.8125 -34.171875 L 5.4375 -96.84375 L 34.046875 -96.84375 Z M 5.703125 -11 C 5.703125 -15.007812 6.890625 -18.128906 9.265625 -20.359375 C 11.648438 -22.597656 15.117188 -23.71875 19.671875 -23.71875 C 24.171875 -23.71875 27.582031 -22.597656 29.90625 -20.359375 C 32.226562 -18.128906 33.390625 -15.007812 33.390625 -11 C 33.390625 -7.019531 32.1875 -3.914062 29.78125 -1.6875 C 27.375 0.539062 24.003906 1.65625 19.671875 1.65625 C 15.296875 1.65625 11.875 0.539062 9.40625 -1.6875 C 6.9375 -3.914062 5.703125 -7.019531 5.703125 -11 Z M 5.703125 -11 "/></g></g></g><g fill="#e4e4e4" fill-opacity="1"><g transform="translate(4.05844, 139.783048)"><g><path d="M 115.0625 0 L 84.125 0 L 74.84375 -42.1875 C 74.40625 -43.957031 73.710938 -47.46875 72.765625 -52.71875 C 71.816406 -57.976562 71.117188 -62.375 70.671875 -65.90625 C 70.316406 -63.039062 69.742188 -59.472656 68.953125 -55.203125 C 68.160156 -50.941406 67.375 -47.023438 66.59375 -43.453125 C 65.820312 -39.878906 62.613281 -25.394531 56.96875 0 L 26.03125 0 L 2.046875 -96.84375 L 27.296875 -96.84375 L 37.828125 -48.28125 C 40.210938 -37.550781 41.84375 -29.007812 42.71875 -22.65625 C 43.289062 -27.15625 44.316406 -33.269531 45.796875 -41 C 47.273438 -48.726562 48.65625 -55.128906 49.9375 -60.203125 L 58.484375 -96.84375 L 82.734375 -96.84375 L 91.015625 -60.203125 C 92.421875 -54.335938 93.851562 -47.5625 95.3125 -39.875 C 96.769531 -32.1875 97.742188 -26.445312 98.234375 -22.65625 C 98.804688 -27.550781 100.375 -36.050781 102.9375 -48.15625 L 113.671875 -96.84375 L 138.90625 -96.84375 Z M 115.0625 0 "/></g></g></g><g fill="#e4e4e4" fill-opacity="1"><g transform="translate(145.008935, 139.783048)"><g><path d="M 67.953125 0 L 10.46875 0 L 10.46875 -96.84375 L 67.953125 -96.84375 L 67.953125 -75.84375 L 36.625 -75.84375 L 36.625 -60.609375 L 65.640625 -60.609375 L 65.640625 -39.609375 L 36.625 -39.609375 L 36.625 -21.328125 L 67.953125 -21.328125 Z M 67.953125 0 "/></g></g></g><g fill="#e4e4e4" fill-opacity="1"><g transform="translate(219.458351, 139.783048)"><g><path d="M 10.46875 0 L 10.46875 -96.84375 L 36.625 -96.84375 L 36.625 -21.125 L 73.921875 -21.125 L 73.921875 0 Z M 10.46875 0 "/></g></g></g><g fill="#e4e4e4" fill-opacity="1"><g transform="translate(298.411824, 139.783048)"><g><path d="M 53.59375 -76.765625 C 47.363281 -76.765625 42.503906 -74.210938 39.015625 -69.109375 C 35.523438 -64.015625 33.78125 -56.984375 33.78125 -48.015625 C 33.78125 -29.378906 40.867188 -20.0625 55.046875 -20.0625 C 59.328125 -20.0625 63.476562 -20.65625 67.5 -21.84375 C 71.519531 -23.039062 75.5625 -24.484375 79.625 -26.171875 L 79.625 -4.046875 C 71.539062 -0.460938 62.398438 1.328125 52.203125 1.328125 C 37.578125 1.328125 26.367188 -2.910156 18.578125 -11.390625 C 10.785156 -19.867188 6.890625 -32.125 6.890625 -48.15625 C 6.890625 -58.175781 8.773438 -66.984375 12.546875 -74.578125 C 16.328125 -82.179688 21.757812 -88.023438 28.84375 -92.109375 C 35.9375 -96.191406 44.273438 -98.234375 53.859375 -98.234375 C 64.316406 -98.234375 74.316406 -95.957031 83.859375 -91.40625 L 75.84375 -70.8125 C 72.269531 -72.488281 68.691406 -73.898438 65.109375 -75.046875 C 61.535156 -76.191406 57.695312 -76.765625 53.59375 -76.765625 Z M 53.59375 -76.765625 "/></g></g></g><g fill="#e4e4e4" fill-opacity="1"><g transform="translate(386.439642, 139.783048)"><g><path d="M 101.078125 -48.546875 C 101.078125 -32.253906 97.078125 -19.867188 89.078125 -11.390625 C 81.085938 -2.910156 69.390625 1.328125 53.984375 1.328125 C 38.796875 1.328125 27.148438 -2.929688 19.046875 -11.453125 C 10.941406 -19.984375 6.890625 -32.394531 6.890625 -48.6875 C 6.890625 -64.800781 10.914062 -77.109375 18.96875 -85.609375 C 27.03125 -94.109375 38.742188 -98.359375 54.109375 -98.359375 C 69.523438 -98.359375 81.207031 -94.140625 89.15625 -85.703125 C 97.101562 -77.273438 101.078125 -64.890625 101.078125 -48.546875 Z M 34.4375 -48.546875 C 34.4375 -29.828125 40.953125 -20.46875 53.984375 -20.46875 C 60.609375 -20.46875 65.519531 -22.738281 68.71875 -27.28125 C 71.925781 -31.832031 73.53125 -38.921875 73.53125 -48.546875 C 73.53125 -58.222656 71.90625 -65.367188 68.65625 -69.984375 C 65.40625 -74.597656 60.554688 -76.90625 54.109375 -76.90625 C 40.992188 -76.90625 34.4375 -67.453125 34.4375 -48.546875 Z M 34.4375 -48.546875 "/></g></g></g><g fill="#e4e4e4" fill-opacity="1"><g transform="translate(494.537014, 139.783048)"><g><path d="M 52.65625 0 L 32.859375 -69.75 L 32.265625 -69.75 C 33.191406 -57.875 33.65625 -48.644531 33.65625 -42.0625 L 33.65625 0 L 10.46875 0 L 10.46875 -96.84375 L 45.3125 -96.84375 L 65.515625 -28.078125 L 66.046875 -28.078125 L 85.84375 -96.84375 L 120.75 -96.84375 L 120.75 0 L 96.703125 0 L 96.703125 -42.453125 C 96.703125 -44.660156 96.734375 -47.113281 96.796875 -49.8125 C 96.867188 -52.507812 97.171875 -59.109375 97.703125 -69.609375 L 97.109375 -69.609375 L 77.5625 0 Z M 52.65625 0 "/></g></g></g><g fill="#e4e4e4" fill-opacity="1"><g transform="translate(625.684542, 139.783048)"><g><path d="M 67.953125 0 L 10.46875 0 L 10.46875 -96.84375 L 67.953125 -96.84375 L 67.953125 -75.84375 L 36.625 -75.84375 L 36.625 -60.609375 L 65.640625 -60.609375 L 65.640625 -39.609375 L 36.625 -39.609375 L 36.625 -21.328125 L 67.953125 -21.328125 Z M 67.953125 0 "/></g></g></g><g fill="#e4e4e4" fill-opacity="1"><g transform="translate(700.133936, 139.783048)"><g><path d="M 30.671875 -34.171875 L 8.8125 -34.171875 L 5.4375 -96.84375 L 34.046875 -96.84375 Z M 5.703125 -11 C 5.703125 -15.007812 6.890625 -18.128906 9.265625 -20.359375 C 11.648438 -22.597656 15.117188 -23.71875 19.671875 -23.71875 C 24.171875 -23.71875 27.582031 -22.597656 29.90625 -20.359375 C 32.226562 -18.128906 33.390625 -15.007812 33.390625 -11 C 33.390625 -7.019531 32.1875 -3.914062 29.78125 -1.6875 C 27.375 0.539062 24.003906 1.65625 19.671875 1.65625 C 15.296875 1.65625 11.875 0.539062 9.40625 -1.6875 C 6.9375 -3.914062 5.703125 -7.019531 5.703125 -11 Z M 5.703125 -11 "/></g></g></g></svg>